<svg width="184" height="113" viewBox="0 0 184 113" fill="none" xmlns="http://www.w3.org/2000/svg">
<path d="M35.5828 32.1821C35.3961 31.4588 35.1395 30.7938 34.8128 30.1871C34.4861 29.5804 34.0661 29.0554 33.5528 28.6121C33.0395 28.1688 32.4328 27.8304 31.7328 27.5971C31.0561 27.3404 30.2628 27.2121 29.3528 27.2121C28.0228 27.2121 26.8678 27.4804 25.8878 28.0171C24.9311 28.5538 24.1495 29.2771 23.5428 30.1871C22.9361 31.0738 22.4811 32.0888 22.1778 33.2321C21.8978 34.3754 21.7578 35.5421 21.7578 36.7321C21.7578 37.9221 21.8978 39.0888 22.1778 40.2321C22.4811 41.3754 22.9361 42.4021 23.5428 43.3121C24.1495 44.1988 24.9311 44.9104 25.8878 45.4471C26.8678 45.9838 28.0228 46.2521 29.3528 46.2521C30.3328 46.2521 31.1961 46.0888 31.9428 45.7621C32.6895 45.4121 33.3311 44.9454 33.8678 44.3621C34.4045 43.7554 34.8245 43.0554 35.1278 42.2621C35.4311 41.4688 35.6295 40.6171 35.7228 39.7071H39.9928C39.8995 41.2004 39.5728 42.5654 39.0128 43.8021C38.4761 45.0388 37.7411 46.1121 36.8078 47.0221C35.8745 47.9088 34.7778 48.5971 33.5178 49.0871C32.2578 49.5771 30.8695 49.8221 29.3528 49.8221C27.4861 49.8221 25.8061 49.4838 24.3128 48.8071C22.8428 48.1071 21.5945 47.1621 20.5678 45.9721C19.5411 44.7821 18.7478 43.3938 18.1878 41.8071C17.6511 40.2204 17.3828 38.5288 17.3828 36.7321C17.3828 34.9588 17.6511 33.2788 18.1878 31.6921C18.7478 30.1054 19.5411 28.7171 20.5678 27.5271C21.5945 26.3371 22.8428 25.3921 24.3128 24.6921C25.8061 23.9921 27.4861 23.6421 29.3528 23.6421C30.7528 23.6421 32.0711 23.8404 33.3078 24.2371C34.5445 24.6104 35.6295 25.1704 36.5628 25.9171C37.5195 26.6404 38.2895 27.5271 38.8728 28.5771C39.4561 29.6271 39.8178 30.8288 39.9578 32.1821H35.5828Z" fill="#5934D5"/>
<path d="M47.3666 24.2371H51.7416V34.1771H63.1166V24.2371H67.4916V49.2271H63.1166V37.9571H51.7416V49.2271H47.3666V24.2371Z" fill="#5934D5"/>
<path d="M76.2304 24.2371H88.1654C90.9187 24.2371 92.9837 24.8321 94.3604 26.0221C95.7371 27.2121 96.4254 28.8688 96.4254 30.9921C96.4254 32.1821 96.2504 33.1738 95.9004 33.9671C95.5504 34.7371 95.1421 35.3671 94.6754 35.8571C94.2087 36.3238 93.7421 36.6621 93.2754 36.8721C92.8321 37.0821 92.5054 37.2221 92.2954 37.2921V37.3621C92.6687 37.4088 93.0654 37.5254 93.4854 37.7121C93.9287 37.8988 94.3371 38.2021 94.7104 38.6221C95.0837 39.0188 95.3871 39.5438 95.6204 40.1971C95.8771 40.8504 96.0054 41.6671 96.0054 42.6471C96.0054 44.1171 96.1104 45.4588 96.3204 46.6721C96.5537 47.8621 96.9037 48.7138 97.3704 49.2271H92.6804C92.3537 48.6904 92.1554 48.0954 92.0854 47.4421C92.0387 46.7888 92.0154 46.1588 92.0154 45.5521C92.0154 44.4088 91.9454 43.4288 91.8054 42.6121C91.6654 41.7721 91.4087 41.0838 91.0354 40.5471C90.6621 39.9871 90.1487 39.5788 89.4954 39.3221C88.8654 39.0654 88.0487 38.9371 87.0454 38.9371H80.6054V49.2271H76.2304V24.2371ZM80.6054 35.6121H87.7804C89.1804 35.6121 90.2421 35.2854 90.9654 34.6321C91.6887 33.9554 92.0504 32.9521 92.0504 31.6221C92.0504 30.8288 91.9337 30.1871 91.7004 29.6971C91.4671 29.1838 91.1404 28.7871 90.7204 28.5071C90.3237 28.2271 89.8571 28.0404 89.3204 27.9471C88.8071 27.8538 88.2704 27.8071 87.7104 27.8071H80.6054V35.6121Z" fill="#5934D5"/>
<path d="M104.374 24.2371H108.749V49.2271H104.374V24.2371Z" fill="#5934D5"/>
<path d="M120.485 40.8971C120.485 41.8538 120.648 42.6704 120.975 43.3471C121.302 44.0238 121.757 44.5838 122.34 45.0271C122.923 45.4471 123.588 45.7621 124.335 45.9721C125.105 46.1588 125.933 46.2521 126.82 46.2521C127.777 46.2521 128.593 46.1471 129.27 45.9371C129.947 45.7038 130.495 45.4121 130.915 45.0621C131.335 44.7121 131.638 44.3154 131.825 43.8721C132.012 43.4054 132.105 42.9388 132.105 42.4721C132.105 41.5154 131.883 40.8154 131.44 40.3721C131.02 39.9054 130.553 39.5788 130.04 39.3921C129.153 39.0654 128.115 38.7621 126.925 38.4821C125.758 38.1788 124.312 37.7938 122.585 37.3271C121.512 37.0471 120.613 36.6854 119.89 36.2421C119.19 35.7754 118.63 35.2621 118.21 34.7021C117.79 34.1421 117.487 33.5471 117.3 32.9171C117.137 32.2871 117.055 31.6454 117.055 30.9921C117.055 29.7321 117.312 28.6471 117.825 27.7371C118.362 26.8038 119.062 26.0338 119.925 25.4271C120.788 24.8204 121.768 24.3771 122.865 24.0971C123.962 23.7938 125.07 23.6421 126.19 23.6421C127.497 23.6421 128.722 23.8171 129.865 24.1671C131.032 24.4938 132.047 24.9954 132.91 25.6721C133.797 26.3488 134.497 27.1888 135.01 28.1921C135.523 29.1721 135.78 30.3154 135.78 31.6221H131.405C131.288 30.0121 130.74 28.8804 129.76 28.2271C128.78 27.5504 127.532 27.2121 126.015 27.2121C125.502 27.2121 124.977 27.2704 124.44 27.3871C123.903 27.4804 123.413 27.6554 122.97 27.9121C122.527 28.1454 122.153 28.4721 121.85 28.8921C121.57 29.3121 121.43 29.8371 121.43 30.4671C121.43 31.3538 121.698 32.0538 122.235 32.5671C122.795 33.0571 123.518 33.4304 124.405 33.6871C124.498 33.7104 124.86 33.8154 125.49 34.0021C126.143 34.1654 126.867 34.3521 127.66 34.5621C128.453 34.7721 129.223 34.9821 129.97 35.1921C130.74 35.3788 131.288 35.5188 131.615 35.6121C132.432 35.8688 133.143 36.2188 133.75 36.6621C134.357 37.1054 134.858 37.6188 135.255 38.2021C135.675 38.7621 135.978 39.3688 136.165 40.0221C136.375 40.6754 136.48 41.3288 136.48 41.9821C136.48 43.3821 136.188 44.5838 135.605 45.5871C135.045 46.5671 134.298 47.3721 133.365 48.0021C132.432 48.6321 131.37 49.0871 130.18 49.3671C128.99 49.6704 127.777 49.8221 126.54 49.8221C125.117 49.8221 123.775 49.6471 122.515 49.2971C121.255 48.9471 120.158 48.4104 119.225 47.6871C118.292 46.9638 117.545 46.0421 116.985 44.9221C116.425 43.7788 116.133 42.4371 116.11 40.8971H120.485Z" fill="#5934D5"/>
<path d="M48.3387 67.2371H68.5687V71.0171H60.6237V92.2271H56.2487V71.0171H48.3387V67.2371Z" fill="#5934D5"/>
<path d="M74.9657 67.2371H79.3407V92.2271H74.9657V67.2371Z" fill="#5934D5"/>
<path d="M88.032 67.2371H92.652L104.062 85.6471H104.132V67.2371H108.297V92.2271H103.677L92.302 73.8521H92.197V92.2271H88.032V67.2371Z" fill="#5934D5"/>
<path d="M123.651 67.2371H128.306L137.931 92.2271H133.241L130.896 85.6121H120.921L118.576 92.2271H114.061L123.651 67.2371ZM122.111 82.2871H129.741L125.996 71.5421H125.891L122.111 82.2871Z" fill="#5934D5"/>
<path d="M35.5828 32.1821C35.3961 31.4588 35.1395 30.7938 34.8128 30.1871C34.4861 29.5804 34.0661 29.0554 33.5528 28.6121C33.0395 28.1688 32.4328 27.8304 31.7328 27.5971C31.0561 27.3404 30.2628 27.2121 29.3528 27.2121C28.0228 27.2121 26.8678 27.4804 25.8878 28.0171C24.9311 28.5538 24.1495 29.2771 23.5428 30.1871C22.9361 31.0738 22.4811 32.0888 22.1778 33.2321C21.8978 34.3754 21.7578 35.5421 21.7578 36.7321C21.7578 37.9221 21.8978 39.0888 22.1778 40.2321C22.4811 41.3754 22.9361 42.4021 23.5428 43.3121C24.1495 44.1988 24.9311 44.9104 25.8878 45.4471C26.8678 45.9838 28.0228 46.2521 29.3528 46.2521C30.3328 46.2521 31.1961 46.0888 31.9428 45.7621C32.6895 45.4121 33.3311 44.9454 33.8678 44.3621C34.4045 43.7554 34.8245 43.0554 35.1278 42.2621C35.4311 41.4688 35.6295 40.6171 35.7228 39.7071H39.9928C39.8995 41.2004 39.5728 42.5654 39.0128 43.8021C38.4761 45.0388 37.7411 46.1121 36.8078 47.0221C35.8745 47.9088 34.7778 48.5971 33.5178 49.0871C32.2578 49.5771 30.8695 49.8221 29.3528 49.8221C27.4861 49.8221 25.8061 49.4838 24.3128 48.8071C22.8428 48.1071 21.5945 47.1621 20.5678 45.9721C19.5411 44.7821 18.7478 43.3938 18.1878 41.8071C17.6511 40.2204 17.3828 38.5288 17.3828 36.7321C17.3828 34.9588 17.6511 33.2788 18.1878 31.6921C18.7478 30.1054 19.5411 28.7171 20.5678 27.5271C21.5945 26.3371 22.8428 25.3921 24.3128 24.6921C25.8061 23.9921 27.4861 23.6421 29.3528 23.6421C30.7528 23.6421 32.0711 23.8404 33.3078 24.2371C34.5445 24.6104 35.6295 25.1704 36.5628 25.9171C37.5195 26.6404 38.2895 27.5271 38.8728 28.5771C39.4561 29.6271 39.8178 30.8288 39.9578 32.1821H35.5828Z" stroke="#5934D5" stroke-width="2"/>
<path d="M47.3666 24.2371H51.7416V34.1771H63.1166V24.2371H67.4916V49.2271H63.1166V37.9571H51.7416V49.2271H47.3666V24.2371Z" stroke="#5934D5" stroke-width="2"/>
<path d="M76.2304 24.2371H88.1654C90.9187 24.2371 92.9837 24.8321 94.3604 26.0221C95.7371 27.2121 96.4254 28.8688 96.4254 30.9921C96.4254 32.1821 96.2504 33.1738 95.9004 33.9671C95.5504 34.7371 95.1421 35.3671 94.6754 35.8571C94.2087 36.3238 93.7421 36.6621 93.2754 36.8721C92.8321 37.0821 92.5054 37.2221 92.2954 37.2921V37.3621C92.6687 37.4088 93.0654 37.5254 93.4854 37.7121C93.9287 37.8988 94.3371 38.2021 94.7104 38.6221C95.0837 39.0188 95.3871 39.5438 95.6204 40.1971C95.8771 40.8504 96.0054 41.6671 96.0054 42.6471C96.0054 44.1171 96.1104 45.4588 96.3204 46.6721C96.5537 47.8621 96.9037 48.7138 97.3704 49.2271H92.6804C92.3537 48.6904 92.1554 48.0954 92.0854 47.4421C92.0387 46.7888 92.0154 46.1588 92.0154 45.5521C92.0154 44.4088 91.9454 43.4288 91.8054 42.6121C91.6654 41.7721 91.4087 41.0838 91.0354 40.5471C90.6621 39.9871 90.1487 39.5788 89.4954 39.3221C88.8654 39.0654 88.0487 38.9371 87.0454 38.9371H80.6054V49.2271H76.2304V24.2371ZM80.6054 35.6121H87.7804C89.1804 35.6121 90.2421 35.2854 90.9654 34.6321C91.6887 33.9554 92.0504 32.9521 92.0504 31.6221C92.0504 30.8288 91.9337 30.1871 91.7004 29.6971C91.4671 29.1838 91.1404 28.7871 90.7204 28.5071C90.3237 28.2271 89.8571 28.0404 89.3204 27.9471C88.8071 27.8538 88.2704 27.8071 87.7104 27.8071H80.6054V35.6121Z" stroke="#5934D5" stroke-width="2"/>
<path d="M104.374 24.2371H108.749V49.2271H104.374V24.2371Z" stroke="#5934D5" stroke-width="2"/>
<path d="M120.485 40.8971C120.485 41.8538 120.648 42.6704 120.975 43.3471C121.302 44.0238 121.757 44.5838 122.34 45.0271C122.923 45.4471 123.588 45.7621 124.335 45.9721C125.105 46.1588 125.933 46.2521 126.82 46.2521C127.777 46.2521 128.593 46.1471 129.27 45.9371C129.947 45.7038 130.495 45.4121 130.915 45.0621C131.335 44.7121 131.638 44.3154 131.825 43.8721C132.012 43.4054 132.105 42.9388 132.105 42.4721C132.105 41.5154 131.883 40.8154 131.44 40.3721C131.02 39.9054 130.553 39.5788 130.04 39.3921C129.153 39.0654 128.115 38.7621 126.925 38.4821C125.758 38.1788 124.312 37.7938 122.585 37.3271C121.512 37.0471 120.613 36.6854 119.89 36.2421C119.19 35.7754 118.63 35.2621 118.21 34.7021C117.79 34.1421 117.487 33.5471 117.3 32.9171C117.137 32.2871 117.055 31.6454 117.055 30.9921C117.055 29.7321 117.312 28.6471 117.825 27.7371C118.362 26.8038 119.062 26.0338 119.925 25.4271C120.788 24.8204 121.768 24.3771 122.865 24.0971C123.962 23.7938 125.07 23.6421 126.19 23.6421C127.497 23.6421 128.722 23.8171 129.865 24.1671C131.032 24.4938 132.047 24.9954 132.91 25.6721C133.797 26.3488 134.497 27.1888 135.01 28.1921C135.523 29.1721 135.78 30.3154 135.78 31.6221H131.405C131.288 30.0121 130.74 28.8804 129.76 28.2271C128.78 27.5504 127.532 27.2121 126.015 27.2121C125.502 27.2121 124.977 27.2704 124.44 27.3871C123.903 27.4804 123.413 27.6554 122.97 27.9121C122.527 28.1454 122.153 28.4721 121.85 28.8921C121.57 29.3121 121.43 29.8371 121.43 30.4671C121.43 31.3538 121.698 32.0538 122.235 32.5671C122.795 33.0571 123.518 33.4304 124.405 33.6871C124.498 33.7104 124.86 33.8154 125.49 34.0021C126.143 34.1654 126.867 34.3521 127.66 34.5621C128.453 34.7721 129.223 34.9821 129.97 35.1921C130.74 35.3788 131.288 35.5188 131.615 35.6121C132.432 35.8688 133.143 36.2188 133.75 36.6621C134.357 37.1054 134.858 37.6188 135.255 38.2021C135.675 38.7621 135.978 39.3688 136.165 40.0221C136.375 40.6754 136.48 41.3288 136.48 41.9821C136.48 43.3821 136.188 44.5838 135.605 45.5871C135.045 46.5671 134.298 47.3721 133.365 48.0021C132.432 48.6321 131.37 49.0871 130.18 49.3671C128.99 49.6704 127.777 49.8221 126.54 49.8221C125.117 49.8221 123.775 49.6471 122.515 49.2971C121.255 48.9471 120.158 48.4104 119.225 47.6871C118.292 46.9638 117.545 46.0421 116.985 44.9221C116.425 43.7788 116.133 42.4371 116.11 40.8971H120.485Z" stroke="#5934D5" stroke-width="2"/>
<path d="M48.3387 67.2371H68.5687V71.0171H60.6237V92.2271H56.2487V71.0171H48.3387V67.2371Z" stroke="#5934D5" stroke-width="2"/>
<path d="M74.9657 67.2371H79.3407V92.2271H74.9657V67.2371Z" stroke="#5934D5" stroke-width="2"/>
<path d="M88.032 67.2371H92.652L104.062 85.6471H104.132V67.2371H108.297V92.2271H103.677L92.302 73.8521H92.197V92.2271H88.032V67.2371Z" stroke="#5934D5" stroke-width="2"/>
<path d="M123.651 67.2371H128.306L137.931 92.2271H133.241L130.896 85.6121H120.921L118.576 92.2271H114.061L123.651 67.2371ZM122.111 82.2871H129.741L125.996 71.5421H125.891L122.111 82.2871Z" stroke="#5934D5" stroke-width="2"/>
<path d="M154.312 20.1164L154.337 20.0346L154.352 19.9506L154.638 18.3466L155.756 20.1343L155.784 20.1788L155.815 20.2213C159.392 25.1365 163.572 30.188 169.827 31.9461C164.042 34.7344 159.804 39.965 158.277 46.2091L157.128 50.9124L156.007 47.37C154.128 41.4323 149.775 36.6252 144.11 34.1529C146.65 32.7638 148.568 31.2753 150.1 29.3199C151.95 26.9603 153.141 24.0406 154.312 20.1164ZM31.2023 66.3843C33.1862 72.2673 37.5996 76.9663 43.254 79.339C37.6652 81.6933 33.3112 86.3105 31.3018 92.0704L30.2443 95.102L29.7956 93.0029C28.5449 87.151 24.9216 82.1194 19.8479 79.0699C25.3292 76.1649 29.3069 71.0143 30.7173 64.946L31.2023 66.3843Z" fill="#F0C079" stroke="#5934D5" stroke-width="3"/>
</svg>
