<svg width="159" height="91" viewBox="0 0 159 91" fill="none" xmlns="http://www.w3.org/2000/svg">
<path d="M19.5828 22.1821C19.3961 21.4588 19.1395 20.7938 18.8128 20.1871C18.4861 19.5804 18.0661 19.0554 17.5528 18.6121C17.0395 18.1688 16.4328 17.8304 15.7328 17.5971C15.0561 17.3404 14.2628 17.2121 13.3528 17.2121C12.0228 17.2121 10.8678 17.4804 9.88781 18.0171C8.93115 18.5538 8.14948 19.2771 7.54281 20.1871C6.93615 21.0738 6.48115 22.0888 6.17781 23.2321C5.89781 24.3754 5.75781 25.5421 5.75781 26.7321C5.75781 27.9221 5.89781 29.0888 6.17781 30.2321C6.48115 31.3754 6.93615 32.4021 7.54281 33.3121C8.14948 34.1988 8.93115 34.9104 9.88781 35.4471C10.8678 35.9838 12.0228 36.2521 13.3528 36.2521C14.3328 36.2521 15.1961 36.0888 15.9428 35.7621C16.6895 35.4121 17.3311 34.9454 17.8678 34.3621C18.4045 33.7554 18.8245 33.0554 19.1278 32.2621C19.4311 31.4688 19.6295 30.6171 19.7228 29.7071H23.9928C23.8995 31.2004 23.5728 32.5654 23.0128 33.8021C22.4761 35.0388 21.7411 36.1121 20.8078 37.0221C19.8745 37.9088 18.7778 38.5971 17.5178 39.0871C16.2578 39.5771 14.8695 39.8221 13.3528 39.8221C11.4861 39.8221 9.80615 39.4838 8.31281 38.8071C6.84281 38.1071 5.59448 37.1621 4.56781 35.9721C3.54115 34.7821 2.74781 33.3938 2.18781 31.8071C1.65115 30.2204 1.38281 28.5288 1.38281 26.7321C1.38281 24.9588 1.65115 23.2788 2.18781 21.6921C2.74781 20.1054 3.54115 18.7171 4.56781 17.5271C5.59448 16.3371 6.84281 15.3921 8.31281 14.6921C9.80615 13.9921 11.4861 13.6421 13.3528 13.6421C14.7528 13.6421 16.0711 13.8404 17.3078 14.2371C18.5445 14.6104 19.6295 15.1704 20.5628 15.9171C21.5195 16.6404 22.2895 17.5271 22.8728 18.5771C23.4561 19.6271 23.8178 20.8288 23.9578 22.1821H19.5828Z" fill="#5934D5"/>
<path d="M31.3666 14.2371H35.7416V24.1771H47.1166V14.2371H51.4916V39.2271H47.1166V27.9571H35.7416V39.2271H31.3666V14.2371Z" fill="#5934D5"/>
<path d="M60.2304 14.2371H72.1654C74.9187 14.2371 76.9837 14.8321 78.3604 16.0221C79.7371 17.2121 80.4254 18.8688 80.4254 20.9921C80.4254 22.1821 80.2504 23.1738 79.9004 23.9671C79.5504 24.7371 79.1421 25.3671 78.6754 25.8571C78.2087 26.3238 77.7421 26.6621 77.2754 26.8721C76.8321 27.0821 76.5054 27.2221 76.2954 27.2921V27.3621C76.6687 27.4088 77.0654 27.5254 77.4854 27.7121C77.9287 27.8988 78.3371 28.2021 78.7104 28.6221C79.0837 29.0188 79.3871 29.5438 79.6204 30.1971C79.8771 30.8504 80.0054 31.6671 80.0054 32.6471C80.0054 34.1171 80.1104 35.4588 80.3204 36.6721C80.5537 37.8621 80.9037 38.7138 81.3704 39.2271H76.6804C76.3537 38.6904 76.1554 38.0954 76.0854 37.4421C76.0387 36.7888 76.0154 36.1588 76.0154 35.5521C76.0154 34.4088 75.9454 33.4288 75.8054 32.6121C75.6654 31.7721 75.4087 31.0838 75.0354 30.5471C74.6621 29.9871 74.1487 29.5788 73.4954 29.3221C72.8654 29.0654 72.0487 28.9371 71.0454 28.9371H64.6054V39.2271H60.2304V14.2371ZM64.6054 25.6121H71.7804C73.1804 25.6121 74.2421 25.2854 74.9654 24.6321C75.6887 23.9554 76.0504 22.9521 76.0504 21.6221C76.0504 20.8288 75.9337 20.1871 75.7004 19.6971C75.4671 19.1838 75.1404 18.7871 74.7204 18.5071C74.3237 18.2271 73.8571 18.0404 73.3204 17.9471C72.8071 17.8538 72.2704 17.8071 71.7104 17.8071H64.6054V25.6121Z" fill="#5934D5"/>
<path d="M88.3739 14.2371H92.7489V39.2271H88.3739V14.2371Z" fill="#5934D5"/>
<path d="M104.485 30.8971C104.485 31.8538 104.648 32.6704 104.975 33.3471C105.302 34.0238 105.757 34.5838 106.34 35.0271C106.923 35.4471 107.588 35.7621 108.335 35.9721C109.105 36.1588 109.933 36.2521 110.82 36.2521C111.777 36.2521 112.593 36.1471 113.27 35.9371C113.947 35.7038 114.495 35.4121 114.915 35.0621C115.335 34.7121 115.638 34.3154 115.825 33.8721C116.012 33.4054 116.105 32.9388 116.105 32.4721C116.105 31.5154 115.883 30.8154 115.44 30.3721C115.02 29.9054 114.553 29.5788 114.04 29.3921C113.153 29.0654 112.115 28.7621 110.925 28.4821C109.758 28.1788 108.312 27.7938 106.585 27.3271C105.512 27.0471 104.613 26.6854 103.89 26.2421C103.19 25.7754 102.63 25.2621 102.21 24.7021C101.79 24.1421 101.487 23.5471 101.3 22.9171C101.137 22.2871 101.055 21.6454 101.055 20.9921C101.055 19.7321 101.312 18.6471 101.825 17.7371C102.362 16.8038 103.062 16.0338 103.925 15.4271C104.788 14.8204 105.768 14.3771 106.865 14.0971C107.962 13.7938 109.07 13.6421 110.19 13.6421C111.497 13.6421 112.722 13.8171 113.865 14.1671C115.032 14.4938 116.047 14.9954 116.91 15.6721C117.797 16.3488 118.497 17.1888 119.01 18.1921C119.523 19.1721 119.78 20.3154 119.78 21.6221H115.405C115.288 20.0121 114.74 18.8804 113.76 18.2271C112.78 17.5504 111.532 17.2121 110.015 17.2121C109.502 17.2121 108.977 17.2704 108.44 17.3871C107.903 17.4804 107.413 17.6554 106.97 17.9121C106.527 18.1454 106.153 18.4721 105.85 18.8921C105.57 19.3121 105.43 19.8371 105.43 20.4671C105.43 21.3538 105.698 22.0538 106.235 22.5671C106.795 23.0571 107.518 23.4304 108.405 23.6871C108.498 23.7104 108.86 23.8154 109.49 24.0021C110.143 24.1654 110.867 24.3521 111.66 24.5621C112.453 24.7721 113.223 24.9821 113.97 25.1921C114.74 25.3788 115.288 25.5188 115.615 25.6121C116.432 25.8688 117.143 26.2188 117.75 26.6621C118.357 27.1054 118.858 27.6188 119.255 28.2021C119.675 28.7621 119.978 29.3688 120.165 30.0221C120.375 30.6754 120.48 31.3288 120.48 31.9821C120.48 33.3821 120.188 34.5838 119.605 35.5871C119.045 36.5671 118.298 37.3721 117.365 38.0021C116.432 38.6321 115.37 39.0871 114.18 39.3671C112.99 39.6704 111.777 39.8221 110.54 39.8221C109.117 39.8221 107.775 39.6471 106.515 39.2971C105.255 38.9471 104.158 38.4104 103.225 37.6871C102.292 36.9638 101.545 36.0421 100.985 34.9221C100.425 33.7788 100.133 32.4371 100.11 30.8971H104.485Z" fill="#5934D5"/>
<path d="M32.3387 57.2371H52.5687V61.0171H44.6237V82.2271H40.2487V61.0171H32.3387V57.2371Z" fill="#5934D5"/>
<path d="M58.9657 57.2371H63.3407V82.2271H58.9657V57.2371Z" fill="#5934D5"/>
<path d="M72.032 57.2371H76.652L88.062 75.6471H88.132V57.2371H92.297V82.2271H87.677L76.302 63.8521H76.197V82.2271H72.032V57.2371Z" fill="#5934D5"/>
<path d="M107.651 57.2371H112.306L121.931 82.2271H117.241L114.896 75.6121H104.921L102.576 82.2271H98.0607L107.651 57.2371ZM106.111 72.2871H113.741L109.996 61.5421H109.891L106.111 72.2871Z" fill="#5934D5"/>
<path d="M19.5828 22.1821C19.3961 21.4588 19.1395 20.7938 18.8128 20.1871C18.4861 19.5804 18.0661 19.0554 17.5528 18.6121C17.0395 18.1688 16.4328 17.8304 15.7328 17.5971C15.0561 17.3404 14.2628 17.2121 13.3528 17.2121C12.0228 17.2121 10.8678 17.4804 9.88781 18.0171C8.93115 18.5538 8.14948 19.2771 7.54281 20.1871C6.93615 21.0738 6.48115 22.0888 6.17781 23.2321C5.89781 24.3754 5.75781 25.5421 5.75781 26.7321C5.75781 27.9221 5.89781 29.0888 6.17781 30.2321C6.48115 31.3754 6.93615 32.4021 7.54281 33.3121C8.14948 34.1988 8.93115 34.9104 9.88781 35.4471C10.8678 35.9838 12.0228 36.2521 13.3528 36.2521C14.3328 36.2521 15.1961 36.0888 15.9428 35.7621C16.6895 35.4121 17.3311 34.9454 17.8678 34.3621C18.4045 33.7554 18.8245 33.0554 19.1278 32.2621C19.4311 31.4688 19.6295 30.6171 19.7228 29.7071H23.9928C23.8995 31.2004 23.5728 32.5654 23.0128 33.8021C22.4761 35.0388 21.7411 36.1121 20.8078 37.0221C19.8745 37.9088 18.7778 38.5971 17.5178 39.0871C16.2578 39.5771 14.8695 39.8221 13.3528 39.8221C11.4861 39.8221 9.80615 39.4838 8.31281 38.8071C6.84281 38.1071 5.59448 37.1621 4.56781 35.9721C3.54115 34.7821 2.74781 33.3938 2.18781 31.8071C1.65115 30.2204 1.38281 28.5288 1.38281 26.7321C1.38281 24.9588 1.65115 23.2788 2.18781 21.6921C2.74781 20.1054 3.54115 18.7171 4.56781 17.5271C5.59448 16.3371 6.84281 15.3921 8.31281 14.6921C9.80615 13.9921 11.4861 13.6421 13.3528 13.6421C14.7528 13.6421 16.0711 13.8404 17.3078 14.2371C18.5445 14.6104 19.6295 15.1704 20.5628 15.9171C21.5195 16.6404 22.2895 17.5271 22.8728 18.5771C23.4561 19.6271 23.8178 20.8288 23.9578 22.1821H19.5828Z" stroke="#5934D5" stroke-width="2"/>
<path d="M31.3666 14.2371H35.7416V24.1771H47.1166V14.2371H51.4916V39.2271H47.1166V27.9571H35.7416V39.2271H31.3666V14.2371Z" stroke="#5934D5" stroke-width="2"/>
<path d="M60.2304 14.2371H72.1654C74.9187 14.2371 76.9837 14.8321 78.3604 16.0221C79.7371 17.2121 80.4254 18.8688 80.4254 20.9921C80.4254 22.1821 80.2504 23.1738 79.9004 23.9671C79.5504 24.7371 79.1421 25.3671 78.6754 25.8571C78.2087 26.3238 77.7421 26.6621 77.2754 26.8721C76.8321 27.0821 76.5054 27.2221 76.2954 27.2921V27.3621C76.6687 27.4088 77.0654 27.5254 77.4854 27.7121C77.9287 27.8988 78.3371 28.2021 78.7104 28.6221C79.0837 29.0188 79.3871 29.5438 79.6204 30.1971C79.8771 30.8504 80.0054 31.6671 80.0054 32.6471C80.0054 34.1171 80.1104 35.4588 80.3204 36.6721C80.5537 37.8621 80.9037 38.7138 81.3704 39.2271H76.6804C76.3537 38.6904 76.1554 38.0954 76.0854 37.4421C76.0387 36.7888 76.0154 36.1588 76.0154 35.5521C76.0154 34.4088 75.9454 33.4288 75.8054 32.6121C75.6654 31.7721 75.4087 31.0838 75.0354 30.5471C74.6621 29.9871 74.1487 29.5788 73.4954 29.3221C72.8654 29.0654 72.0487 28.9371 71.0454 28.9371H64.6054V39.2271H60.2304V14.2371ZM64.6054 25.6121H71.7804C73.1804 25.6121 74.2421 25.2854 74.9654 24.6321C75.6887 23.9554 76.0504 22.9521 76.0504 21.6221C76.0504 20.8288 75.9337 20.1871 75.7004 19.6971C75.4671 19.1838 75.1404 18.7871 74.7204 18.5071C74.3237 18.2271 73.8571 18.0404 73.3204 17.9471C72.8071 17.8538 72.2704 17.8071 71.7104 17.8071H64.6054V25.6121Z" stroke="#5934D5" stroke-width="2"/>
<path d="M88.3739 14.2371H92.7489V39.2271H88.3739V14.2371Z" stroke="#5934D5" stroke-width="2"/>
<path d="M104.485 30.8971C104.485 31.8538 104.648 32.6704 104.975 33.3471C105.302 34.0238 105.757 34.5838 106.34 35.0271C106.923 35.4471 107.588 35.7621 108.335 35.9721C109.105 36.1588 109.933 36.2521 110.82 36.2521C111.777 36.2521 112.593 36.1471 113.27 35.9371C113.947 35.7038 114.495 35.4121 114.915 35.0621C115.335 34.7121 115.638 34.3154 115.825 33.8721C116.012 33.4054 116.105 32.9388 116.105 32.4721C116.105 31.5154 115.883 30.8154 115.44 30.3721C115.02 29.9054 114.553 29.5788 114.04 29.3921C113.153 29.0654 112.115 28.7621 110.925 28.4821C109.758 28.1788 108.312 27.7938 106.585 27.3271C105.512 27.0471 104.613 26.6854 103.89 26.2421C103.19 25.7754 102.63 25.2621 102.21 24.7021C101.79 24.1421 101.487 23.5471 101.3 22.9171C101.137 22.2871 101.055 21.6454 101.055 20.9921C101.055 19.7321 101.312 18.6471 101.825 17.7371C102.362 16.8038 103.062 16.0338 103.925 15.4271C104.788 14.8204 105.768 14.3771 106.865 14.0971C107.962 13.7938 109.07 13.6421 110.19 13.6421C111.497 13.6421 112.722 13.8171 113.865 14.1671C115.032 14.4938 116.047 14.9954 116.91 15.6721C117.797 16.3488 118.497 17.1888 119.01 18.1921C119.523 19.1721 119.78 20.3154 119.78 21.6221H115.405C115.288 20.0121 114.74 18.8804 113.76 18.2271C112.78 17.5504 111.532 17.2121 110.015 17.2121C109.502 17.2121 108.977 17.2704 108.44 17.3871C107.903 17.4804 107.413 17.6554 106.97 17.9121C106.527 18.1454 106.153 18.4721 105.85 18.8921C105.57 19.3121 105.43 19.8371 105.43 20.4671C105.43 21.3538 105.698 22.0538 106.235 22.5671C106.795 23.0571 107.518 23.4304 108.405 23.6871C108.498 23.7104 108.86 23.8154 109.49 24.0021C110.143 24.1654 110.867 24.3521 111.66 24.5621C112.453 24.7721 113.223 24.9821 113.97 25.1921C114.74 25.3788 115.288 25.5188 115.615 25.6121C116.432 25.8688 117.143 26.2188 117.75 26.6621C118.357 27.1054 118.858 27.6188 119.255 28.2021C119.675 28.7621 119.978 29.3688 120.165 30.0221C120.375 30.6754 120.48 31.3288 120.48 31.9821C120.48 33.3821 120.188 34.5838 119.605 35.5871C119.045 36.5671 118.298 37.3721 117.365 38.0021C116.432 38.6321 115.37 39.0871 114.18 39.3671C112.99 39.6704 111.777 39.8221 110.54 39.8221C109.117 39.8221 107.775 39.6471 106.515 39.2971C105.255 38.9471 104.158 38.4104 103.225 37.6871C102.292 36.9638 101.545 36.0421 100.985 34.9221C100.425 33.7788 100.133 32.4371 100.11 30.8971H104.485Z" stroke="#5934D5" stroke-width="2"/>
<path d="M32.3387 57.2371H52.5687V61.0171H44.6237V82.2271H40.2487V61.0171H32.3387V57.2371Z" stroke="#5934D5" stroke-width="2"/>
<path d="M58.9657 57.2371H63.3407V82.2271H58.9657V57.2371Z" stroke="#5934D5" stroke-width="2"/>
<path d="M72.032 57.2371H76.652L88.062 75.6471H88.132V57.2371H92.297V82.2271H87.677L76.302 63.8521H76.197V82.2271H72.032V57.2371Z" stroke="#5934D5" stroke-width="2"/>
<path d="M107.651 57.2371H112.306L121.931 82.2271H117.241L114.896 75.6121H104.921L102.576 82.2271H98.0607L107.651 57.2371ZM106.111 72.2871H113.741L109.996 61.5421H109.891L106.111 72.2871Z" stroke="#5934D5" stroke-width="2"/>
<path d="M15.2023 56.3843C17.1862 62.2673 21.5996 66.9663 27.254 69.339C21.6652 71.6933 17.3112 76.3105 15.3018 82.0704L14.2443 85.102L13.7956 83.0029C12.5449 77.151 8.92161 72.1194 3.84787 69.0699C9.32918 66.1649 13.3069 61.0143 14.7173 54.946L15.2023 56.3843ZM139.284 9.95193C141.953 15.91 147.171 20.3074 153.435 21.9545C147.659 24.7449 143.427 29.9713 141.902 36.2091L140.753 40.9124L139.632 37.37C137.747 31.4152 133.375 26.5975 127.686 24.1315C133.668 20.5457 137.565 14.2529 138.072 7.24748L139.284 9.95193Z" fill="#F0C079" stroke="#5934D5" stroke-width="3"/>
</svg>
