<svg width="169" height="91" viewBox="0 0 169 91" fill="none" xmlns="http://www.w3.org/2000/svg">
<path d="M26.5827 22.1821C26.3961 21.4587 26.1394 20.7937 25.8127 20.187C25.4861 19.5804 25.0661 19.0554 24.5527 18.612C24.0394 18.1687 23.4327 17.8304 22.7327 17.597C22.0561 17.3404 21.2627 17.2121 20.3527 17.2121C19.0227 17.2121 17.8677 17.4804 16.8877 18.0171C15.9311 18.5537 15.1494 19.2771 14.5427 20.187C13.9361 21.0737 13.4811 22.0887 13.1777 23.2321C12.8977 24.3754 12.7577 25.542 12.7577 26.732C12.7577 27.922 12.8977 29.0887 13.1777 30.2321C13.4811 31.3754 13.9361 32.4021 14.5427 33.3121C15.1494 34.1987 15.9311 34.9104 16.8877 35.4471C17.8677 35.9837 19.0227 36.2521 20.3527 36.2521C21.3327 36.2521 22.1961 36.0887 22.9427 35.7621C23.6894 35.4121 24.3311 34.9454 24.8677 34.3621C25.4044 33.7554 25.8244 33.0554 26.1277 32.2621C26.4311 31.4687 26.6294 30.6171 26.7227 29.7071H30.9927C30.8994 31.2004 30.5727 32.5654 30.0127 33.8021C29.4761 35.0387 28.7411 36.1121 27.8077 37.0221C26.8744 37.9087 25.7777 38.5971 24.5177 39.0871C23.2577 39.5771 21.8694 39.8221 20.3527 39.8221C18.4861 39.8221 16.8061 39.4837 15.3127 38.8071C13.8427 38.1071 12.5944 37.1621 11.5677 35.9721C10.5411 34.7821 9.74773 33.3937 9.18773 31.8071C8.65107 30.2204 8.38273 28.5287 8.38273 26.732C8.38273 24.9587 8.65107 23.2787 9.18773 21.692C9.74773 20.1054 10.5411 18.7171 11.5677 17.5271C12.5944 16.3371 13.8427 15.3921 15.3127 14.692C16.8061 13.9921 18.4861 13.6421 20.3527 13.6421C21.7527 13.6421 23.0711 13.8404 24.3077 14.237C25.5444 14.6104 26.6294 15.1704 27.5627 15.9171C28.5194 16.6404 29.2894 17.527 29.8727 18.577C30.4561 19.6271 30.8177 20.8287 30.9577 22.1821H26.5827ZM38.3665 14.237H42.7415V24.1771H54.1165V14.237H58.4915V39.2271H54.1165V27.957H42.7415V39.2271H38.3665V14.237ZM67.2303 14.237H79.1653C81.9186 14.237 83.9836 14.832 85.3603 16.022C86.737 17.212 87.4253 18.8687 87.4253 20.992C87.4253 22.182 87.2503 23.1737 86.9003 23.9671C86.5503 24.737 86.142 25.367 85.6753 25.857C85.2086 26.3237 84.742 26.6621 84.2753 26.8721C83.832 27.0821 83.5053 27.2221 83.2953 27.2921V27.3621C83.6686 27.4087 84.0653 27.5254 84.4853 27.712C84.9286 27.8987 85.337 28.2021 85.7103 28.6221C86.0836 29.0187 86.387 29.5437 86.6203 30.1971C86.877 30.8504 87.0053 31.6671 87.0053 32.6471C87.0053 34.1171 87.1103 35.4587 87.3203 36.6721C87.5536 37.8621 87.9036 38.7137 88.3703 39.2271H83.6803C83.3536 38.6904 83.1553 38.0954 83.0853 37.4421C83.0386 36.7887 83.0153 36.1587 83.0153 35.5521C83.0153 34.4087 82.9453 33.4287 82.8053 32.6121C82.6653 31.7721 82.4086 31.0837 82.0353 30.5471C81.662 29.9871 81.1486 29.5787 80.4953 29.3221C79.8653 29.0654 79.0486 28.9371 78.0453 28.9371H71.6053V39.2271H67.2303V14.237ZM71.6053 25.612H78.7803C80.1803 25.612 81.242 25.2854 81.9653 24.632C82.6886 23.9554 83.0503 22.9521 83.0503 21.6221C83.0503 20.8287 82.9336 20.1871 82.7003 19.697C82.467 19.1837 82.1403 18.787 81.7203 18.5071C81.3236 18.227 80.857 18.0404 80.3203 17.947C79.807 17.8537 79.2703 17.807 78.7103 17.807H71.6053V25.612ZM95.3739 14.237H99.7489V39.2271H95.3739V14.237ZM111.485 30.8971C111.485 31.8537 111.648 32.6704 111.975 33.3471C112.302 34.0237 112.757 34.5837 113.34 35.0271C113.923 35.4471 114.588 35.7621 115.335 35.9721C116.105 36.1587 116.933 36.2521 117.82 36.2521C118.777 36.2521 119.593 36.1471 120.27 35.9371C120.947 35.7037 121.495 35.4121 121.915 35.0621C122.335 34.7121 122.638 34.3154 122.825 33.8721C123.012 33.4054 123.105 32.9387 123.105 32.4721C123.105 31.5154 122.883 30.8154 122.44 30.3721C122.02 29.9054 121.553 29.5787 121.04 29.3921C120.153 29.0654 119.115 28.7621 117.925 28.4821C116.758 28.1787 115.312 27.7937 113.585 27.3271C112.512 27.0471 111.613 26.6854 110.89 26.2421C110.19 25.7754 109.63 25.262 109.21 24.7021C108.79 24.1421 108.487 23.5471 108.3 22.9171C108.137 22.287 108.055 21.6454 108.055 20.992C108.055 19.732 108.312 18.647 108.825 17.737C109.362 16.8037 110.062 16.0337 110.925 15.4271C111.788 14.8204 112.768 14.377 113.865 14.097C114.962 13.7937 116.07 13.6421 117.19 13.6421C118.497 13.6421 119.722 13.8171 120.865 14.1671C122.032 14.4937 123.047 14.9954 123.91 15.672C124.797 16.3487 125.497 17.1887 126.01 18.1921C126.523 19.1721 126.78 20.3154 126.78 21.6221H122.405C122.288 20.012 121.74 18.8804 120.76 18.227C119.78 17.5504 118.532 17.2121 117.015 17.2121C116.502 17.2121 115.977 17.2704 115.44 17.3871C114.903 17.4804 114.413 17.6554 113.97 17.912C113.527 18.1454 113.153 18.472 112.85 18.892C112.57 19.312 112.43 19.8371 112.43 20.4671C112.43 21.3537 112.698 22.0537 113.235 22.5671C113.795 23.0571 114.518 23.4304 115.405 23.687C115.498 23.7104 115.86 23.8154 116.49 24.002C117.143 24.1654 117.867 24.352 118.66 24.562C119.453 24.772 120.223 24.982 120.97 25.192C121.74 25.3787 122.288 25.5187 122.615 25.612C123.432 25.8687 124.143 26.2187 124.75 26.662C125.357 27.1054 125.858 27.6187 126.255 28.202C126.675 28.7621 126.978 29.3687 127.165 30.0221C127.375 30.6754 127.48 31.3287 127.48 31.9821C127.48 33.3821 127.188 34.5837 126.605 35.5871C126.045 36.5671 125.298 37.3721 124.365 38.0021C123.432 38.6321 122.37 39.0871 121.18 39.3671C119.99 39.6704 118.777 39.8221 117.54 39.8221C116.117 39.8221 114.775 39.6471 113.515 39.2971C112.255 38.9471 111.158 38.4104 110.225 37.6871C109.292 36.9637 108.545 36.0421 107.985 34.9221C107.425 33.7787 107.133 32.4371 107.11 30.8971H111.485ZM39.3386 57.237H59.5686V61.0171H51.6236V82.2271H47.2486V61.0171H39.3386V57.237ZM65.9657 57.237H70.3407V82.2271H65.9657V57.237ZM79.0319 57.237H83.6519L95.0619 75.6471H95.1319V57.237H99.2969V82.2271H94.6769L83.3019 63.852H83.1969V82.2271H79.0319V57.237ZM114.651 57.237H119.306L128.931 82.2271H124.241L121.896 75.6121H111.921L109.576 82.2271H105.061L114.651 57.237ZM113.111 72.2871H120.741L116.996 61.5421H116.891L113.111 72.2871Z" fill="#5934D5"/>
<path d="M26.5827 22.1821L25.6145 22.4319L25.808 23.1821H26.5827V22.1821ZM24.5527 18.612L23.8991 19.3689L23.8991 19.3689L24.5527 18.612ZM22.7327 17.597L22.3781 18.532L22.3972 18.5393L22.4165 18.5457L22.7327 17.597ZM16.8877 18.0171L16.4074 17.1399L16.3985 17.1449L16.8877 18.0171ZM14.5427 20.187L15.3681 20.7518L15.3748 20.7418L14.5427 20.187ZM13.1777 23.2321L12.2112 22.9756L12.2087 22.9849L12.2064 22.9942L13.1777 23.2321ZM13.1777 30.2321L12.2064 30.4699L12.2087 30.4792L12.2112 30.4885L13.1777 30.2321ZM14.5427 33.3121L13.7106 33.8668L13.7174 33.8767L14.5427 33.3121ZM16.8877 35.4471L16.3985 36.3192L16.4074 36.3241L16.8877 35.4471ZM22.9427 35.7621L23.3436 36.6782L23.3554 36.673L23.3672 36.6675L22.9427 35.7621ZM24.8677 34.3621L25.6037 35.0391L25.6103 35.0319L25.6167 35.0246L24.8677 34.3621ZM26.1277 32.2621L25.1937 31.9049L25.1937 31.9049L26.1277 32.2621ZM26.7227 29.7071V28.7071H25.8201L25.728 29.605L26.7227 29.7071ZM30.9927 29.7071L31.9908 29.7694L32.0572 28.7071H30.9927V29.7071ZM30.0127 33.8021L29.1018 33.3895L29.0985 33.3967L29.0954 33.404L30.0127 33.8021ZM27.8077 37.0221L28.4965 37.7471L28.5058 37.7381L27.8077 37.0221ZM24.5177 39.0871L24.1553 38.155L24.1553 38.155L24.5177 39.0871ZM15.3127 38.8071L14.8828 39.7099L14.8914 39.714L14.9 39.7179L15.3127 38.8071ZM11.5677 35.9721L12.3249 35.3188L11.5677 35.9721ZM9.18773 31.8071L8.24037 32.1275L8.24474 32.1399L9.18773 31.8071ZM9.18773 21.692L8.24466 21.3592L8.24045 21.3716L9.18773 21.692ZM11.5677 17.5271L12.3249 18.1803L12.3249 18.1803L11.5677 17.5271ZM15.3127 14.692L14.8883 13.7866L14.8828 13.7892L15.3127 14.692ZM24.3077 14.237L24.0023 15.1893L24.0105 15.1919L24.0187 15.1944L24.3077 14.237ZM27.5627 15.9171L26.938 16.6979L26.9487 16.7065L26.9596 16.7147L27.5627 15.9171ZM29.8727 18.577L28.9986 19.0627L28.9986 19.0627L29.8727 18.577ZM30.9577 22.1821V23.1821H32.0665L31.9524 22.0792L30.9577 22.1821ZM27.551 21.9322C27.3459 21.1373 27.0611 20.3962 26.6932 19.713L24.9323 20.6611C25.2177 21.1912 25.4462 21.7801 25.6145 22.4319L27.551 21.9322ZM26.6932 19.713C26.3097 19.0007 25.8134 18.3795 25.2064 17.8552L23.8991 19.3689C24.3188 19.7313 24.6624 20.16 24.9323 20.6611L26.6932 19.713ZM25.2064 17.8552C24.5858 17.3193 23.8619 16.9194 23.049 16.6484L22.4165 18.5457C23.0036 18.7414 23.493 19.0182 23.8991 19.3689L25.2064 17.8552ZM23.0874 16.6621C22.2724 16.3529 21.354 16.2121 20.3527 16.2121V18.2121C21.1715 18.2121 21.8397 18.3278 22.3781 18.532L23.0874 16.6621ZM20.3527 16.2121C18.8868 16.2121 17.5603 16.5086 16.4074 17.14L17.368 18.8941C18.1751 18.4522 19.1587 18.2121 20.3527 18.2121V16.2121ZM16.3985 17.1449C15.3045 17.7586 14.4052 18.5905 13.7107 19.6323L15.3748 20.7418C15.8936 19.9636 16.5576 19.3488 17.377 18.8892L16.3985 17.1449ZM13.7174 19.6224C13.0403 20.612 12.5408 21.7333 12.2112 22.9756L14.1443 23.4885C14.4214 22.4441 14.8318 21.5354 15.368 20.7517L13.7174 19.6224ZM12.2064 22.9942C11.9072 24.2162 11.7577 25.4628 11.7577 26.732H13.7577C13.7577 25.6213 13.8883 24.5345 14.149 23.4699L12.2064 22.9942ZM11.7577 26.732C11.7577 28.0013 11.9072 29.2479 12.2064 30.4699L14.149 29.9942C13.8883 28.9296 13.7577 27.8428 13.7577 26.732H11.7577ZM12.2112 30.4885C12.5404 31.7293 13.0383 32.8582 13.7107 33.8668L15.3748 32.7573C14.8338 31.9459 14.4218 31.0215 14.1443 29.9756L12.2112 30.4885ZM13.7174 33.8767C14.4128 34.8931 15.3106 35.7089 16.3985 36.3192L17.377 34.5749C16.5516 34.1119 15.886 33.5043 15.368 32.7474L13.7174 33.8767ZM16.4074 36.3241C17.5603 36.9555 18.8868 37.2521 20.3527 37.2521V35.2521C19.1587 35.2521 18.1751 35.0119 17.368 34.57L16.4074 36.3241ZM20.3527 37.2521C21.4433 37.2521 22.4476 37.0702 23.3436 36.6782L22.5419 34.8459C21.9445 35.1072 21.2222 35.2521 20.3527 35.2521V37.2521ZM23.3672 36.6675C24.2267 36.2646 24.9755 35.7219 25.6037 35.0391L24.1318 33.685C23.6867 34.1688 23.1521 34.5595 22.5183 34.8566L23.3672 36.6675ZM25.6167 35.0246C26.2367 34.3238 26.7177 33.5191 27.0618 32.6192L25.1937 31.9049C24.9311 32.5917 24.5721 33.187 24.1187 33.6995L25.6167 35.0246ZM27.0618 32.6192C27.3988 31.7378 27.6159 30.7997 27.7175 29.8091L25.728 29.605C25.6429 30.4344 25.4634 31.1996 25.1937 31.9049L27.0618 32.6192ZM26.7227 30.7071H30.9927V28.7071H26.7227V30.7071ZM29.9947 29.6447C29.9081 31.0293 29.6069 32.2741 29.1018 33.3895L30.9237 34.2146C31.5386 32.8567 31.8907 31.3714 31.9908 29.7694L29.9947 29.6447ZM29.0954 33.404C28.6087 34.5256 27.9467 35.4899 27.1096 36.3061L28.5058 37.7381C29.5354 36.7342 30.3435 35.5519 30.9301 34.2001L29.0954 33.404ZM27.119 36.2971C26.2846 37.0897 25.3003 37.7098 24.1553 38.155L24.8802 40.0191C26.2552 39.4843 27.4642 38.7277 28.4965 37.7471L27.119 36.2971ZM24.1553 38.155C23.0241 38.595 21.7605 38.8221 20.3527 38.8221V40.8221C21.9784 40.8221 23.4914 40.5591 24.8802 40.0191L24.1553 38.155ZM20.3527 38.8221C18.6087 38.8221 17.0723 38.5065 15.7255 37.8962L14.9 39.7179C16.5398 40.4609 18.3634 40.8221 20.3527 40.8221V38.8221ZM15.7427 37.9042C14.3933 37.2616 13.2577 36.4 12.3249 35.3188L10.8106 36.6253C11.9311 37.9241 13.2922 38.9525 14.8828 39.7099L15.7427 37.9042ZM12.3249 35.3188C11.3852 34.2296 10.6522 32.9518 10.1307 31.4742L8.24474 32.1399C8.84325 33.8356 9.69696 35.3345 10.8106 36.6253L12.3249 35.3188ZM10.135 31.4866C9.63571 30.0104 9.38273 28.4277 9.38273 26.732H7.38273C7.38273 28.6297 7.66642 30.4303 8.24045 32.1275L10.135 31.4866ZM9.38273 26.732C9.38273 25.0612 9.63526 23.49 10.135 22.0125L8.24045 21.3716C7.66687 23.0675 7.38273 24.8562 7.38273 26.732H9.38273ZM10.1307 22.0249C10.6522 20.5473 11.3852 19.2695 12.3249 18.1803L10.8106 16.8738C9.69696 18.1646 8.84325 19.6635 8.24474 21.3592L10.1307 22.0249ZM12.3249 18.1803C13.2577 17.0991 14.3933 16.2375 15.7427 15.5949L14.8828 13.7892C13.2922 14.5466 11.9311 15.575 10.8106 16.8738L12.3249 18.1803ZM15.7372 15.5975C17.0812 14.9675 18.6134 14.6421 20.3527 14.6421V12.6421C18.3588 12.6421 16.531 13.0166 14.8883 13.7866L15.7372 15.5975ZM20.3527 14.6421C21.6571 14.6421 22.8718 14.8266 24.0023 15.1893L24.6132 13.2848C23.2704 12.8541 21.8483 12.6421 20.3527 12.6421V14.6421ZM24.0187 15.1944C25.1432 15.5338 26.1121 16.0372 26.938 16.6979L28.1874 15.1362C27.1467 14.3036 25.9456 13.6869 24.5967 13.2797L24.0187 15.1944ZM26.9596 16.7147C27.805 17.3539 28.4828 18.1342 28.9986 19.0627L30.7469 18.0914C30.096 16.9199 29.2338 15.9269 28.1658 15.1194L26.9596 16.7147ZM28.9986 19.0627C29.5081 19.9799 29.8351 21.0482 29.963 22.2849L31.9524 22.0792C31.8004 20.6092 31.404 19.2742 30.7469 18.0914L28.9986 19.0627ZM30.9577 21.1821H26.5827V23.1821H30.9577V21.1821ZM38.3665 14.237V13.237H37.3665V14.237H38.3665ZM42.7415 14.237H43.7415V13.237H42.7415V14.237ZM42.7415 24.1771H41.7415V25.1771H42.7415V24.1771ZM54.1165 24.1771V25.1771H55.1165V24.1771H54.1165ZM54.1165 14.237V13.237H53.1165V14.237H54.1165ZM58.4915 14.237H59.4915V13.237H58.4915V14.237ZM58.4915 39.2271V40.2271H59.4915V39.2271H58.4915ZM54.1165 39.2271H53.1165V40.2271H54.1165V39.2271ZM54.1165 27.957H55.1165V26.957H54.1165V27.957ZM42.7415 27.957V26.957H41.7415V27.957H42.7415ZM42.7415 39.2271V40.2271H43.7415V39.2271H42.7415ZM38.3665 39.2271H37.3665V40.2271H38.3665V39.2271ZM38.3665 15.237H42.7415V13.237H38.3665V15.237ZM41.7415 14.237V24.1771H43.7415V14.237H41.7415ZM42.7415 25.1771H54.1165V23.1771H42.7415V25.1771ZM55.1165 24.1771V14.237H53.1165V24.1771H55.1165ZM54.1165 15.237H58.4915V13.237H54.1165V15.237ZM57.4915 14.237V39.2271H59.4915V14.237H57.4915ZM58.4915 38.2271H54.1165V40.2271H58.4915V38.2271ZM55.1165 39.2271V27.957H53.1165V39.2271H55.1165ZM54.1165 26.957H42.7415V28.957H54.1165V26.957ZM41.7415 27.957V39.2271H43.7415V27.957H41.7415ZM42.7415 38.2271H38.3665V40.2271H42.7415V38.2271ZM39.3665 39.2271V14.237H37.3665V39.2271H39.3665ZM67.2303 14.237V13.237H66.2303V14.237H67.2303ZM86.9003 23.9671L87.8107 24.3809L87.8152 24.3707L86.9003 23.9671ZM85.6753 25.857L86.3824 26.5642L86.391 26.5555L86.3995 26.5467L85.6753 25.857ZM84.2753 26.8721L83.8649 25.9601L83.856 25.9641L83.8472 25.9683L84.2753 26.8721ZM83.2953 27.2921L82.9791 26.3434L82.2953 26.5713V27.2921H83.2953ZM83.2953 27.3621H82.2953V28.2448L83.1713 28.3543L83.2953 27.3621ZM84.4853 27.712L84.0792 28.6259L84.0882 28.6299L84.0973 28.6337L84.4853 27.712ZM85.7103 28.6221L84.9629 29.2864L84.9724 29.2971L84.9821 29.3074L85.7103 28.6221ZM86.6203 30.1971L85.6786 30.5334L85.6838 30.5481L85.6896 30.5627L86.6203 30.1971ZM87.3203 36.6721L86.335 36.8426L86.3369 36.8536L86.339 36.8645L87.3203 36.6721ZM88.3703 39.2271V40.2271H90.6309L89.1103 38.5544L88.3703 39.2271ZM83.6803 39.2271L82.8261 39.747L83.1183 40.2271H83.6803V39.2271ZM83.0853 37.4421L82.0879 37.5133L82.0891 37.531L82.091 37.5486L83.0853 37.4421ZM82.8053 32.6121L81.8189 32.7765L81.8197 32.781L82.8053 32.6121ZM82.0353 30.5471L81.2033 31.1018L81.2088 31.11L81.2144 31.1181L82.0353 30.5471ZM80.4953 29.3221L80.118 30.2482L80.1297 30.2528L80.4953 29.3221ZM71.6053 28.9371V27.9371H70.6053V28.9371H71.6053ZM71.6053 39.2271V40.2271H72.6053V39.2271H71.6053ZM67.2303 39.2271H66.2303V40.2271H67.2303V39.2271ZM71.6053 25.612H70.6053V26.612H71.6053V25.612ZM81.9653 24.632L82.6356 25.3742L82.6421 25.3683L82.6485 25.3623L81.9653 24.632ZM82.7003 19.697L81.7899 20.1109L81.7936 20.119L81.7975 20.127L82.7003 19.697ZM81.7203 18.5071L81.1436 19.324L81.1545 19.3317L81.1656 19.3391L81.7203 18.5071ZM80.3203 17.947L80.1414 18.9309L80.149 18.9323L80.3203 17.947ZM71.6053 17.807V16.807H70.6053V17.807H71.6053ZM67.2303 15.237H79.1653V13.237H67.2303V15.237ZM79.1653 15.237C81.7973 15.237 83.5846 15.809 84.7064 16.7786L86.0143 15.2655C84.3827 13.8551 82.04 13.237 79.1653 13.237V15.237ZM84.7064 16.7786C85.8257 17.7462 86.4253 19.1056 86.4253 20.992H88.4253C88.4253 18.6318 87.6482 16.6779 86.0143 15.2655L84.7064 16.7786ZM86.4253 20.992C86.4253 22.0916 86.2625 22.9352 85.9854 23.5634L87.8152 24.3707C88.2381 23.4122 88.4253 22.2725 88.4253 20.992H86.4253ZM85.9899 23.5532C85.6751 24.2459 85.3243 24.7756 84.9512 25.1674L86.3995 26.5467C86.9597 25.9585 87.4255 25.2282 87.8107 24.3809L85.9899 23.5532ZM84.9682 25.1499C84.5636 25.5545 84.1943 25.8119 83.8649 25.9601L84.6857 27.784C85.2897 27.5122 85.8537 27.0929 86.3824 26.5642L84.9682 25.1499ZM83.8472 25.9683C83.4075 26.1766 83.1275 26.2939 82.9791 26.3434L83.6115 28.2407C83.8832 28.1502 84.2565 27.9875 84.7034 27.7758L83.8472 25.9683ZM82.2953 27.2921V27.3621H84.2953V27.2921H82.2953ZM83.1713 28.3543C83.4285 28.3865 83.7298 28.4706 84.0792 28.6259L84.8915 26.7982C84.4009 26.5802 83.9088 26.431 83.4193 26.3698L83.1713 28.3543ZM84.0973 28.6337C84.3818 28.7535 84.6721 28.9592 84.9629 29.2864L86.4577 27.9577C86.0019 27.4449 85.4755 27.0439 84.8734 26.7904L84.0973 28.6337ZM84.9821 29.3074C85.2389 29.5803 85.4794 29.9757 85.6786 30.5334L87.5621 29.8607C87.2946 29.1118 86.9284 28.4572 86.4385 27.9367L84.9821 29.3074ZM85.6896 30.5627C85.8862 31.0633 86.0053 31.7462 86.0053 32.6471H88.0053C88.0053 31.5879 87.8677 30.6375 87.5511 29.8314L85.6896 30.5627ZM86.0053 32.6471C86.0053 34.1636 86.1136 35.5634 86.335 36.8426L88.3057 36.5015C88.1071 35.3541 88.0053 34.0705 88.0053 32.6471H86.0053ZM86.339 36.8645C86.5845 38.1167 86.98 39.1843 87.6304 39.8997L89.1103 38.5544C88.8273 38.2431 88.5228 37.6074 88.3016 36.4796L86.339 36.8645ZM88.3703 38.2271H83.6803V40.2271H88.3703V38.2271ZM84.5345 38.7071C84.2879 38.302 84.1347 37.8493 84.0796 37.3355L82.091 37.5486C82.176 38.3415 82.4193 39.0787 82.8261 39.747L84.5345 38.7071ZM84.0828 37.3708C84.0377 36.7393 84.0153 36.1332 84.0153 35.5521H82.0153C82.0153 36.1843 82.0396 36.8381 82.0879 37.5133L84.0828 37.3708ZM84.0153 35.5521C84.0153 34.3717 83.9433 33.332 83.7909 32.4431L81.8197 32.781C81.9473 33.5254 82.0153 34.4457 82.0153 35.5521H84.0153ZM83.7917 32.4477C83.6344 31.504 83.3357 30.6653 82.8562 29.976L81.2144 31.1181C81.4816 31.5022 81.6962 32.0401 81.8189 32.7764L83.7917 32.4477ZM82.8674 29.9924C82.3756 29.2547 81.6959 28.7193 80.861 28.3913L80.1297 30.2528C80.6014 30.4381 80.9484 30.7194 81.2033 31.1018L82.8674 29.9924ZM80.8726 28.396C80.0801 28.0731 79.1221 27.9371 78.0453 27.9371V29.9371C78.9752 29.9371 79.6505 30.0577 80.118 30.2481L80.8726 28.396ZM78.0453 27.9371H71.6053V29.9371H78.0453V27.9371ZM70.6053 28.9371V39.2271H72.6053V28.9371H70.6053ZM71.6053 38.2271H67.2303V40.2271H71.6053V38.2271ZM68.2303 39.2271V14.237H66.2303V39.2271H68.2303ZM71.6053 26.612H78.7803V24.612H71.6053V26.612ZM78.7803 26.612C80.321 26.612 81.6621 26.2534 82.6356 25.3742L81.295 23.8899C80.8218 24.3173 80.0397 24.612 78.7803 24.612V26.612ZM82.6485 25.3623C83.6363 24.4383 84.0503 23.13 84.0503 21.6221H82.0503C82.0503 22.7741 81.741 23.4725 81.2822 23.9018L82.6485 25.3623ZM84.0503 21.6221C84.0503 20.7433 83.923 19.9388 83.6032 19.2671L81.7975 20.127C81.9443 20.4353 82.0503 20.9142 82.0503 21.6221H84.0503ZM83.6107 19.2832C83.3094 18.6205 82.868 18.0703 82.275 17.675L81.1656 19.3391C81.4126 19.5038 81.6245 19.7469 81.7899 20.1109L83.6107 19.2832ZM82.297 17.6901C81.7653 17.3148 81.1563 17.0774 80.4917 16.9618L80.149 18.9323C80.5576 19.0033 80.882 19.1393 81.1436 19.324L82.297 17.6901ZM80.4992 16.9632C79.9227 16.8584 79.326 16.807 78.7103 16.807V18.807C79.2147 18.807 79.6912 18.8491 80.1414 18.9309L80.4992 16.9632ZM78.7103 16.807H71.6053V18.807H78.7103V16.807ZM70.6053 17.807V25.612H72.6053V17.807H70.6053ZM95.3739 14.237V13.237H94.3739V14.237H95.3739ZM99.7489 14.237H100.749V13.237H99.7489V14.237ZM99.7489 39.2271V40.2271H100.749V39.2271H99.7489ZM95.3739 39.2271H94.3739V40.2271H95.3739V39.2271ZM95.3739 15.237H99.7489V13.237H95.3739V15.237ZM98.7489 14.237V39.2271H100.749V14.237H98.7489ZM99.7489 38.2271H95.3739V40.2271H99.7489V38.2271ZM96.3739 39.2271V14.237H94.3739V39.2271H96.3739ZM111.485 30.8971H112.485V29.8971H111.485V30.8971ZM113.34 35.0271L112.735 35.8232L112.745 35.831L112.756 35.8386L113.34 35.0271ZM115.335 35.9721L115.064 36.9347L115.082 36.9396L115.099 36.9439L115.335 35.9721ZM120.27 35.9371L120.566 36.8921L120.581 36.8875L120.596 36.8824L120.27 35.9371ZM121.915 35.0621L121.275 34.2938L121.915 35.0621ZM122.825 33.8721L123.747 34.2601L123.75 34.2518L123.754 34.2434L122.825 33.8721ZM122.44 30.3721L121.697 31.041L121.714 31.0606L121.733 31.0792L122.44 30.3721ZM121.04 29.3921L120.694 30.3304L120.698 30.3318L121.04 29.3921ZM117.925 28.4821L117.673 29.4499L117.685 29.4528L117.696 29.4555L117.925 28.4821ZM113.585 27.3271L113.846 26.3616L113.838 26.3594L113.585 27.3271ZM110.89 26.2421L110.335 27.0741L110.351 27.0847L110.368 27.0947L110.89 26.2421ZM109.21 24.7021L108.41 25.3021L108.41 25.3021L109.21 24.7021ZM108.3 22.9171L107.332 23.168L107.336 23.1847L107.341 23.2011L108.3 22.9171ZM108.825 17.737L107.958 17.2386L107.954 17.2457L108.825 17.737ZM110.925 15.4271L111.5 16.2452L111.5 16.2452L110.925 15.4271ZM113.865 14.097L114.112 15.066L114.122 15.0635L114.132 15.0609L113.865 14.097ZM120.865 14.1671L120.572 15.1233L120.584 15.1268L120.595 15.13L120.865 14.1671ZM123.91 15.672L123.293 16.4592L123.303 16.467L123.91 15.672ZM126.01 18.1921L125.12 18.6475L125.124 18.6561L126.01 18.1921ZM126.78 21.6221V22.6221H127.78V21.6221H126.78ZM122.405 21.6221L121.408 21.6943L121.475 22.6221H122.405V21.6221ZM120.76 18.227L120.192 19.0499L120.199 19.0546L120.205 19.0591L120.76 18.227ZM115.44 17.3871L115.611 18.3723L115.632 18.3687L115.653 18.3642L115.44 17.3871ZM113.97 17.912L114.436 18.797L114.454 18.7876L114.471 18.7775L113.97 17.912ZM112.85 18.892L112.039 18.3066L112.028 18.3218L112.018 18.3373L112.85 18.892ZM113.235 22.5671L112.544 23.2897L112.56 23.305L112.577 23.3196L113.235 22.5671ZM115.405 23.687L115.127 24.6476L115.145 24.6527L115.163 24.6572L115.405 23.687ZM116.49 24.002L116.206 24.9608L116.227 24.967L116.248 24.9722L116.49 24.002ZM118.66 24.562L118.404 25.5288L118.404 25.5288L118.66 24.562ZM120.97 25.192L120.699 26.1547L120.717 26.1596L120.734 26.1639L120.97 25.192ZM122.615 25.612L122.915 24.6581L122.902 24.6541L122.89 24.6505L122.615 25.612ZM124.75 26.662L124.16 27.4694L124.16 27.4694L124.75 26.662ZM126.255 28.202L125.428 28.7644L125.441 28.7835L125.455 28.802L126.255 28.202ZM127.165 30.0221L126.204 30.2968L126.208 30.3125L126.213 30.3281L127.165 30.0221ZM126.605 35.5871L125.741 35.0844L125.737 35.0909L126.605 35.5871ZM124.365 38.0021L123.806 37.1732L123.806 37.1732L124.365 38.0021ZM121.18 39.3671L120.951 38.3936L120.942 38.3958L120.933 38.398L121.18 39.3671ZM113.515 39.2971L113.783 38.3335L113.515 39.2971ZM110.225 37.6871L110.838 36.8966L110.838 36.8966L110.225 37.6871ZM107.985 34.9221L107.087 35.3619L107.091 35.3693L107.985 34.9221ZM107.11 30.8971V29.8971H106.095L106.11 30.9122L107.11 30.8971ZM110.485 30.8971C110.485 31.9644 110.667 32.9377 111.075 33.7818L112.876 32.9123C112.63 32.403 112.485 31.743 112.485 30.8971H110.485ZM111.075 33.7818C111.468 34.5968 112.023 35.2819 112.735 35.8232L113.945 34.2309C113.491 33.8855 113.136 33.4506 112.876 32.9123L111.075 33.7818ZM112.756 35.8386C113.441 36.3321 114.214 36.6956 115.064 36.9347L115.606 35.0094C114.963 34.8285 114.406 34.562 113.924 34.2155L112.756 35.8386ZM115.099 36.9439C115.955 37.1513 116.863 37.2521 117.82 37.2521V35.2521C117.004 35.2521 116.255 35.1661 115.571 35.0002L115.099 36.9439ZM117.82 37.2521C118.845 37.2521 119.767 37.1403 120.566 36.8921L119.974 34.982C119.42 35.1538 118.709 35.2521 117.82 35.2521V37.2521ZM120.596 36.8824C121.354 36.6211 122.018 36.2778 122.555 35.8303L121.275 34.2938C120.972 34.5463 120.54 34.7863 119.944 34.9917L120.596 36.8824ZM122.555 35.8303C123.081 35.392 123.49 34.8699 123.747 34.2601L121.903 33.484C121.787 33.7609 121.589 34.0321 121.275 34.2938L122.555 35.8303ZM123.754 34.2434C123.984 33.6678 124.105 33.0755 124.105 32.4721H122.105C122.105 32.802 122.04 33.1429 121.897 33.5007L123.754 34.2434ZM124.105 32.4721C124.105 31.387 123.857 30.3744 123.147 29.6649L121.733 31.0792C121.91 31.2564 122.105 31.6437 122.105 32.4721H124.105ZM123.183 29.7031C122.67 29.1329 122.071 28.7028 121.382 28.4523L120.698 30.3318C121.036 30.4546 121.37 30.6778 121.697 31.041L123.183 29.7031ZM121.386 28.4537C120.452 28.1096 119.373 27.7954 118.154 27.5086L117.696 29.4555C118.857 29.7287 119.855 30.0212 120.694 30.3304L121.386 28.4537ZM118.177 27.5142C117.014 27.212 115.571 26.8279 113.846 26.3617L113.324 28.2924C115.053 28.7596 116.503 29.1455 117.673 29.4499L118.177 27.5142ZM113.838 26.3594C112.832 26.0971 112.031 25.7684 111.413 25.3894L110.368 27.0947C111.196 27.6024 112.192 27.997 113.333 28.2947L113.838 26.3594ZM111.445 25.41C110.821 24.9939 110.35 24.5551 110.01 24.102L108.41 25.3021C108.91 25.969 109.56 26.5569 110.335 27.0741L111.445 25.41ZM110.01 24.102C109.657 23.6308 109.41 23.1418 109.259 22.633L107.341 23.2011C107.564 23.9523 107.923 24.6533 108.41 25.3021L110.01 24.102ZM109.268 22.6661C109.126 22.1184 109.055 21.561 109.055 20.992H107.055C107.055 21.7297 107.147 22.4557 107.332 23.168L109.268 22.6661ZM109.055 20.992C109.055 19.8688 109.283 18.9604 109.696 18.2284L107.954 17.2457C107.34 18.3337 107.055 19.5953 107.055 20.992H109.055ZM109.692 18.2355C110.157 17.4261 110.759 16.7662 111.5 16.2452L110.35 14.6089C109.365 15.3012 108.566 16.1813 107.958 17.2386L109.692 18.2355ZM111.5 16.2452C112.257 15.7132 113.125 15.3182 114.112 15.066L113.618 13.1281C112.412 13.4359 111.32 13.9276 110.35 14.6089L111.5 16.2452ZM114.132 15.0609C115.143 14.7812 116.162 14.6421 117.19 14.6421V12.6421C115.979 12.6421 114.781 12.8063 113.598 13.1332L114.132 15.0609ZM117.19 14.6421C118.407 14.6421 119.532 14.8048 120.572 15.1233L121.158 13.2108C119.911 12.8293 118.587 12.6421 117.19 12.6421V14.6421ZM120.595 15.13C121.649 15.4251 122.543 15.8713 123.293 16.4591L124.527 14.885C123.55 14.1195 122.414 13.5624 121.135 13.2041L120.595 15.13ZM123.303 16.467C124.07 17.0521 124.674 17.7757 125.12 18.6475L126.9 17.7366C126.32 16.6018 125.523 15.6453 124.517 14.8771L123.303 16.467ZM125.124 18.6561C125.55 19.4691 125.78 20.4478 125.78 21.6221H127.78C127.78 20.183 127.497 18.875 126.896 17.728L125.124 18.6561ZM126.78 20.6221H122.405V22.6221H126.78V20.6221ZM123.402 21.5498C123.272 19.7535 122.639 18.2776 121.315 17.395L120.205 19.0591C120.842 19.4832 121.305 20.2706 121.408 21.6943L123.402 21.5498ZM121.328 17.4042C120.141 16.5842 118.679 16.2121 117.015 16.2121V18.2121C118.384 18.2121 119.419 18.5166 120.192 19.0499L121.328 17.4042ZM117.015 16.2121C116.426 16.2121 115.829 16.2791 115.228 16.4099L115.653 18.3642C116.124 18.2617 116.578 18.2121 117.015 18.2121V16.2121ZM115.269 16.4018C114.623 16.5141 114.021 16.7273 113.469 17.0466L114.471 18.7775C114.806 18.5835 115.183 18.4467 115.611 18.3723L115.269 16.4018ZM113.504 17.0271C112.92 17.3348 112.43 17.7659 112.039 18.3066L113.661 19.4775C113.877 19.1782 114.134 18.956 114.436 18.797L113.504 17.0271ZM112.018 18.3373C111.604 18.9582 111.43 19.6887 111.43 20.4671H113.43C113.43 19.9854 113.536 19.6659 113.682 19.4468L112.018 18.3373ZM111.43 20.4671C111.43 21.5695 111.772 22.5516 112.544 23.2897L113.926 21.8444C113.625 21.5559 113.43 21.1379 113.43 20.4671H111.43ZM112.577 23.3196C113.27 23.9262 114.133 24.3598 115.127 24.6476L115.683 22.7265C114.904 22.501 114.32 22.1879 113.894 21.8145L112.577 23.3196ZM115.163 24.6572C115.163 24.6572 115.163 24.6572 115.163 24.6573C115.163 24.6574 115.164 24.6575 115.165 24.6577C115.166 24.6581 115.168 24.6585 115.17 24.6592C115.175 24.6605 115.181 24.6622 115.19 24.6644C115.206 24.6689 115.227 24.6748 115.254 24.6823C115.307 24.6974 115.378 24.7177 115.468 24.7436C115.646 24.7954 115.892 24.8677 116.206 24.9608L116.774 23.0433C116.159 22.8608 115.768 22.747 115.648 22.7169L115.163 24.6572ZM116.248 24.9722C116.896 25.1342 117.614 25.3197 118.404 25.5288L118.916 23.5953C118.119 23.3844 117.391 23.1966 116.733 23.0319L116.248 24.9722ZM118.404 25.5288C119.193 25.7375 119.958 25.9462 120.699 26.1547L121.241 24.2294C120.489 24.0179 119.714 23.8066 118.916 23.5953L118.404 25.5288ZM120.734 26.1639C121.504 26.3504 122.035 26.4863 122.34 26.5736L122.89 24.6505C122.542 24.5511 121.976 24.407 121.206 24.2202L120.734 26.1639ZM122.315 26.566C123.042 26.7945 123.653 27.0988 124.16 27.4694L125.34 25.8547C124.634 25.3387 123.821 24.9429 122.915 24.6581L122.315 26.566ZM124.16 27.4694C124.68 27.8497 125.1 28.2817 125.428 28.7644L127.082 27.6397C126.617 26.9557 126.033 26.3611 125.34 25.8547L124.16 27.4694ZM125.455 28.802C125.804 29.2674 126.051 29.7644 126.204 30.2968L128.127 29.7473C127.905 28.9731 127.546 28.2567 127.055 27.602L125.455 28.802ZM126.213 30.3281C126.393 30.8875 126.48 31.4377 126.48 31.9821H128.48C128.48 31.2197 128.357 30.4633 128.117 29.716L126.213 30.3281ZM126.48 31.9821C126.48 33.2419 126.218 34.2624 125.741 35.0844L127.47 36.0897C128.158 34.905 128.48 33.5222 128.48 31.9821H126.48ZM125.737 35.0909C125.253 35.9381 124.612 36.6292 123.806 37.1732L124.925 38.8309C125.985 38.1149 126.837 37.196 127.473 36.0832L125.737 35.0909ZM123.806 37.1732C122.981 37.7298 122.033 38.139 120.951 38.3936L121.409 40.3405C122.707 40.0351 123.882 39.5343 124.925 38.8309L123.806 37.1732ZM120.933 38.398C119.824 38.6806 118.694 38.8221 117.54 38.8221V40.8221C118.859 40.8221 120.156 40.6601 121.427 40.3361L120.933 38.398ZM117.54 38.8221C116.199 38.8221 114.948 38.6573 113.783 38.3335L113.247 40.2606C114.602 40.6368 116.034 40.8221 117.54 40.8221V38.8221ZM113.783 38.3335C112.634 38.0145 111.658 37.5323 110.838 36.8966L109.613 38.4775C110.659 39.2885 111.876 39.8796 113.247 40.2606L113.783 38.3335ZM110.838 36.8966C110.03 36.2706 109.377 35.469 108.88 34.4748L107.091 35.3693C107.714 36.6151 108.554 37.6568 109.613 38.4775L110.838 36.8966ZM108.883 34.4822C108.4 33.496 108.132 32.3049 108.11 30.8819L106.11 30.9122C106.135 32.5692 106.45 34.0614 107.087 35.3619L108.883 34.4822ZM107.11 31.8971H111.485V29.8971H107.11V31.8971ZM39.3386 57.237V56.237H38.3386V57.237H39.3386ZM59.5686 57.237H60.5686V56.237H59.5686V57.237ZM59.5686 61.0171V62.0171H60.5686V61.0171H59.5686ZM51.6236 61.0171V60.0171H50.6236V61.0171H51.6236ZM51.6236 82.2271V83.2271H52.6236V82.2271H51.6236ZM47.2486 82.2271H46.2486V83.2271H47.2486V82.2271ZM47.2486 61.0171H48.2486V60.0171H47.2486V61.0171ZM39.3386 61.0171H38.3386V62.0171H39.3386V61.0171ZM39.3386 58.237H59.5686V56.237H39.3386V58.237ZM58.5686 57.237V61.0171H60.5686V57.237H58.5686ZM59.5686 60.0171H51.6236V62.0171H59.5686V60.0171ZM50.6236 61.0171V82.2271H52.6236V61.0171H50.6236ZM51.6236 81.2271H47.2486V83.2271H51.6236V81.2271ZM48.2486 82.2271V61.0171H46.2486V82.2271H48.2486ZM47.2486 60.0171H39.3386V62.0171H47.2486V60.0171ZM40.3386 61.0171V57.237H38.3386V61.0171H40.3386ZM65.9657 57.237V56.237H64.9657V57.237H65.9657ZM70.3407 57.237H71.3407V56.237H70.3407V57.237ZM70.3407 82.2271V83.2271H71.3407V82.2271H70.3407ZM65.9657 82.2271H64.9657V83.2271H65.9657V82.2271ZM65.9657 58.237H70.3407V56.237H65.9657V58.237ZM69.3407 57.237V82.2271H71.3407V57.237H69.3407ZM70.3407 81.2271H65.9657V83.2271H70.3407V81.2271ZM66.9657 82.2271V57.237H64.9657V82.2271H66.9657ZM79.0319 57.237V56.237H78.0319V57.237H79.0319ZM83.6519 57.237L84.5019 56.7102L84.2086 56.237H83.6519V57.237ZM95.0619 75.6471L94.2119 76.1739L94.5052 76.6471H95.0619V75.6471ZM95.1319 75.6471V76.6471H96.1319V75.6471H95.1319ZM95.1319 57.237V56.237H94.1319V57.237H95.1319ZM99.2969 57.237H100.297V56.237H99.2969V57.237ZM99.2969 82.2271V83.2271H100.297V82.2271H99.2969ZM94.6769 82.2271L93.8266 82.7534L94.1198 83.2271H94.6769V82.2271ZM83.3019 63.852L84.1521 63.3257L83.8589 62.852H83.3019V63.852ZM83.1969 63.852V62.852H82.1969V63.852H83.1969ZM83.1969 82.2271V83.2271H84.1969V82.2271H83.1969ZM79.0319 82.2271H78.0319V83.2271H79.0319V82.2271ZM79.0319 58.237H83.6519V56.237H79.0319V58.237ZM82.8019 57.7638L94.2119 76.1739L95.9119 75.1203L84.5019 56.7102L82.8019 57.7638ZM95.0619 76.6471H95.1319V74.6471H95.0619V76.6471ZM96.1319 75.6471V57.237H94.1319V75.6471H96.1319ZM95.1319 58.237H99.2969V56.237H95.1319V58.237ZM98.2969 57.237V82.2271H100.297V57.237H98.2969ZM99.2969 81.2271H94.6769V83.2271H99.2969V81.2271ZM95.5271 81.7007L84.1521 63.3257L82.4516 64.3784L93.8266 82.7534L95.5271 81.7007ZM83.3019 62.852H83.1969V64.852H83.3019V62.852ZM82.1969 63.852V82.2271H84.1969V63.852H82.1969ZM83.1969 81.2271H79.0319V83.2271H83.1969V81.2271ZM80.0319 82.2271V57.237H78.0319V82.2271H80.0319ZM114.651 57.237V56.237H113.963L113.717 56.8788L114.651 57.237ZM119.306 57.237L120.239 56.8776L119.992 56.237H119.306V57.237ZM128.931 82.2271V83.2271H130.387L129.864 81.8676L128.931 82.2271ZM124.241 82.2271L123.298 82.5612L123.534 83.2271H124.241V82.2271ZM121.896 75.6121L122.838 75.2779L122.602 74.6121H121.896V75.6121ZM111.921 75.6121V74.6121H111.214L110.978 75.2779L111.921 75.6121ZM109.576 82.2271V83.2271H110.282L110.518 82.5612L109.576 82.2271ZM105.061 82.2271L104.127 81.8688L103.606 83.2271H105.061V82.2271ZM113.111 72.2871L112.167 71.9552L111.699 73.2871H113.111V72.2871ZM120.741 72.2871V73.2871H122.148L121.685 71.9579L120.741 72.2871ZM116.996 61.5421L117.94 61.2129L117.706 60.5421H116.996V61.5421ZM116.891 61.5421V60.5421H116.182L115.947 61.2102L116.891 61.5421ZM114.651 58.237H119.306V56.237H114.651V58.237ZM118.372 57.5965L127.997 82.5865L129.864 81.8676L120.239 56.8776L118.372 57.5965ZM128.931 81.2271H124.241V83.2271H128.931V81.2271ZM125.183 81.8929L122.838 75.2779L120.953 75.9462L123.298 82.5612L125.183 81.8929ZM121.896 74.6121H111.921V76.6121H121.896V74.6121ZM110.978 75.2779L108.633 81.8929L110.518 82.5612L112.863 75.9462L110.978 75.2779ZM109.576 81.2271H105.061V83.2271H109.576V81.2271ZM105.994 82.5853L115.584 57.5953L113.717 56.8788L104.127 81.8688L105.994 82.5853ZM113.111 73.2871H120.741V71.2871H113.111V73.2871ZM121.685 71.9579L117.94 61.2129L116.051 61.8712L119.796 72.6162L121.685 71.9579ZM116.996 60.5421H116.891V62.5421H116.996V60.5421ZM115.947 61.2102L112.167 71.9552L114.054 72.6189L117.834 61.8739L115.947 61.2102Z" fill="#5934D5"/>
<path d="M22.2024 56.3844C24.1862 62.2674 28.5997 66.9664 34.2541 69.3391C28.6652 71.6934 24.3113 76.3106 22.3019 82.0705L21.2443 85.102L20.7957 83.003C19.5449 77.1511 15.9217 72.1195 10.8479 69.07C16.3292 66.1649 20.307 61.0143 21.7174 54.9461L22.2024 56.3844Z" fill="#F0C079" stroke="#5934D5" stroke-width="3"/>
<path d="M146.284 9.952C148.953 15.9101 154.171 20.3075 160.435 21.9546C154.659 24.745 150.427 29.9713 148.903 36.2092L147.753 40.9125L146.632 37.3701C144.747 31.4152 140.375 26.5976 134.686 24.1316C140.668 20.5458 144.565 14.253 145.072 7.24757L146.284 9.952Z" fill="#F0C079" stroke="#5934D5" stroke-width="3"/>
</svg>
