<svg width="272" height="155" viewBox="0 0 272 155" fill="none" xmlns="http://www.w3.org/2000/svg">
<path d="M50.8395 35.4107C50.5728 34.3774 50.2061 33.4274 49.7395 32.5607C49.2728 31.6941 48.6728 30.9441 47.9395 30.3107C47.2061 29.6774 46.3395 29.1941 45.3395 28.8607C44.3728 28.4941 43.2395 28.3107 41.9395 28.3107C40.0395 28.3107 38.3895 28.6941 36.9895 29.4607C35.6228 30.2274 34.5061 31.2607 33.6395 32.5607C32.7728 33.8274 32.1228 35.2774 31.6895 36.9107C31.2895 38.5441 31.0895 40.2107 31.0895 41.9107C31.0895 43.6107 31.2895 45.2774 31.6895 46.9107C32.1228 48.5441 32.7728 50.0107 33.6395 51.3107C34.5061 52.5774 35.6228 53.5941 36.9895 54.3607C38.3895 55.1274 40.0395 55.5107 41.9395 55.5107C43.3395 55.5107 44.5728 55.2774 45.6395 54.8107C46.7061 54.3107 47.6228 53.6441 48.3895 52.8107C49.1561 51.9441 49.7561 50.9441 50.1895 49.8107C50.6228 48.6774 50.9061 47.4607 51.0395 46.1607H57.1395C57.0061 48.2941 56.5395 50.2441 55.7395 52.0107C54.9728 53.7774 53.9228 55.3107 52.5895 56.6107C51.2561 57.8774 49.6895 58.8607 47.8895 59.5607C46.0895 60.2607 44.1061 60.6107 41.9395 60.6107C39.2728 60.6107 36.8728 60.1274 34.7395 59.1607C32.6395 58.1607 30.8561 56.8107 29.3895 55.1107C27.9228 53.4107 26.7895 51.4274 25.9895 49.1607C25.2228 46.8941 24.8395 44.4774 24.8395 41.9107C24.8395 39.3774 25.2228 36.9774 25.9895 34.7107C26.7895 32.4441 27.9228 30.4607 29.3895 28.7607C30.8561 27.0607 32.6395 25.7107 34.7395 24.7107C36.8728 23.7107 39.2728 23.2107 41.9395 23.2107C43.9395 23.2107 45.8228 23.4941 47.5895 24.0607C49.3561 24.5941 50.9061 25.3941 52.2395 26.4607C53.6061 27.4941 54.7061 28.7607 55.5395 30.2607C56.3728 31.7607 56.8895 33.4774 57.0895 35.4107H50.8395ZM67.6734 24.0607H73.9234V38.2607H90.1734V24.0607H96.4234V59.7607H90.1734V43.6607H73.9234V59.7607H67.6734V24.0607ZM108.907 24.0607H125.957C129.891 24.0607 132.841 24.9107 134.807 26.6107C136.774 28.3107 137.757 30.6774 137.757 33.7107C137.757 35.4107 137.507 36.8274 137.007 37.9607C136.507 39.0607 135.924 39.9607 135.257 40.6607C134.591 41.3274 133.924 41.8107 133.257 42.1107C132.624 42.4107 132.157 42.6107 131.857 42.7107V42.8107C132.391 42.8774 132.957 43.0441 133.557 43.3107C134.191 43.5774 134.774 44.0107 135.307 44.6107C135.841 45.1774 136.274 45.9274 136.607 46.8607C136.974 47.7941 137.157 48.9607 137.157 50.3607C137.157 52.4607 137.307 54.3774 137.607 56.1107C137.941 57.8107 138.441 59.0274 139.107 59.7607H132.407C131.941 58.9941 131.657 58.1441 131.557 57.2107C131.491 56.2774 131.457 55.3774 131.457 54.5107C131.457 52.8774 131.357 51.4774 131.157 50.3107C130.957 49.1107 130.591 48.1274 130.057 47.3607C129.524 46.5607 128.791 45.9774 127.857 45.6107C126.957 45.2441 125.791 45.0607 124.357 45.0607H115.157V59.7607H108.907V24.0607ZM115.157 40.3107H125.407C127.407 40.3107 128.924 39.8441 129.957 38.9107C130.991 37.9441 131.507 36.5107 131.507 34.6107C131.507 33.4774 131.341 32.5607 131.007 31.8607C130.674 31.1274 130.207 30.5607 129.607 30.1607C129.041 29.7607 128.374 29.4941 127.607 29.3607C126.874 29.2274 126.107 29.1607 125.307 29.1607H115.157V40.3107ZM149.113 24.0607H155.363V59.7607H149.113V24.0607ZM172.129 47.8607C172.129 49.2274 172.362 50.3941 172.829 51.3607C173.295 52.3274 173.945 53.1274 174.779 53.7607C175.612 54.3607 176.562 54.8107 177.629 55.1107C178.729 55.3774 179.912 55.5107 181.179 55.5107C182.545 55.5107 183.712 55.3607 184.679 55.0607C185.645 54.7274 186.429 54.3107 187.029 53.8107C187.629 53.3107 188.062 52.7441 188.329 52.1107C188.595 51.4441 188.729 50.7774 188.729 50.1107C188.729 48.7441 188.412 47.7441 187.779 47.1107C187.179 46.4441 186.512 45.9774 185.779 45.7107C184.512 45.2441 183.029 44.8107 181.329 44.4107C179.662 43.9774 177.595 43.4274 175.129 42.7607C173.595 42.3607 172.312 41.8441 171.279 41.2107C170.279 40.5441 169.479 39.8107 168.879 39.0107C168.279 38.2107 167.845 37.3607 167.579 36.4607C167.345 35.5607 167.229 34.6441 167.229 33.7107C167.229 31.9107 167.595 30.3607 168.329 29.0607C169.095 27.7274 170.095 26.6274 171.329 25.7607C172.562 24.8941 173.962 24.2607 175.529 23.8607C177.095 23.4274 178.679 23.2107 180.279 23.2107C182.145 23.2107 183.895 23.4607 185.529 23.9607C187.195 24.4274 188.645 25.1441 189.879 26.1107C191.145 27.0774 192.145 28.2774 192.879 29.7107C193.612 31.1107 193.979 32.7441 193.979 34.6107H187.729C187.562 32.3107 186.779 30.6941 185.379 29.7607C183.979 28.7941 182.195 28.3107 180.029 28.3107C179.295 28.3107 178.545 28.3941 177.779 28.5607C177.012 28.6941 176.312 28.9441 175.679 29.3107C175.045 29.6441 174.512 30.1107 174.079 30.7107C173.679 31.3107 173.479 32.0607 173.479 32.9607C173.479 34.2274 173.862 35.2274 174.629 35.9607C175.429 36.6607 176.462 37.1941 177.729 37.5607C177.862 37.5941 178.379 37.7441 179.279 38.0107C180.212 38.2441 181.245 38.5107 182.379 38.8107C183.512 39.1107 184.612 39.4107 185.679 39.7107C186.779 39.9774 187.562 40.1774 188.029 40.3107C189.195 40.6774 190.212 41.1774 191.079 41.8107C191.945 42.4441 192.662 43.1774 193.229 44.0107C193.829 44.8107 194.262 45.6774 194.529 46.6107C194.829 47.5441 194.979 48.4774 194.979 49.4107C194.979 51.4107 194.562 53.1274 193.729 54.5607C192.929 55.9607 191.862 57.1107 190.529 58.0107C189.195 58.9107 187.679 59.5607 185.979 59.9607C184.279 60.3941 182.545 60.6107 180.779 60.6107C178.745 60.6107 176.829 60.3607 175.029 59.8607C173.229 59.3607 171.662 58.5941 170.329 57.5607C168.995 56.5274 167.929 55.2107 167.129 53.6107C166.329 51.9774 165.912 50.0607 165.879 47.8607H172.129ZM69.0621 85.0607H97.9621V90.4607H86.6121V120.761H80.3621V90.4607H69.0621V85.0607ZM107.101 85.0607H113.351V120.761H107.101V85.0607ZM125.767 85.0607H132.367L148.667 111.361H148.767V85.0607H154.717V120.761H148.117L131.867 94.5107H131.717V120.761H125.767V85.0607ZM176.651 85.0607H183.301L197.051 120.761H190.351L187.001 111.311H172.751L169.401 120.761H162.951L176.651 85.0607ZM174.451 106.561H185.351L180.001 91.2107H179.851L174.451 106.561Z" fill="#5934D5"/>
<path d="M50.8395 35.4107L49.8712 35.6606L50.0648 36.4107H50.8395V35.4107ZM47.9395 30.3107L47.2858 31.0676L47.2858 31.0676L47.9395 30.3107ZM45.3395 28.8607L44.9848 29.7957L45.0039 29.803L45.0232 29.8094L45.3395 28.8607ZM36.9895 29.4607L36.5091 28.5836L36.5002 28.5886L36.9895 29.4607ZM33.6395 32.5607L34.4648 33.1255L34.4715 33.1154L33.6395 32.5607ZM31.6895 36.9107L30.7229 36.6543L30.7204 36.6636L30.7182 36.6729L31.6895 36.9107ZM31.6895 46.9107L30.7182 47.1486L30.7204 47.1579L30.7229 47.1672L31.6895 46.9107ZM33.6395 51.3107L32.8073 51.8655L32.8141 51.8754L33.6395 51.3107ZM36.9895 54.3607L36.5002 55.2329L36.5091 55.2378L36.9895 54.3607ZM45.6395 54.8107L46.0403 55.7269L46.0522 55.7217L46.0639 55.7162L45.6395 54.8107ZM48.3895 52.8107L49.1254 53.4878L49.132 53.4806L49.1384 53.4733L48.3895 52.8107ZM50.1895 49.8107L49.2554 49.4536L49.2554 49.4536L50.1895 49.8107ZM51.0395 46.1607V45.1607H50.1368L50.0447 46.0587L51.0395 46.1607ZM57.1395 46.1607L58.1375 46.2231L58.2039 45.1607H57.1395V46.1607ZM55.7395 52.0107L54.8285 51.5982L54.8252 51.6054L54.8221 51.6126L55.7395 52.0107ZM52.5895 56.6107L53.2783 57.3358L53.2876 57.3267L52.5895 56.6107ZM47.8895 59.5607L47.527 58.6287L47.527 58.6287L47.8895 59.5607ZM34.7395 59.1607L34.3095 60.0636L34.3181 60.0677L34.3267 60.0716L34.7395 59.1607ZM29.3895 55.1107L30.1466 54.4575L29.3895 55.1107ZM25.9895 49.1607L25.0421 49.4812L25.0465 49.4936L25.9895 49.1607ZM25.9895 34.7107L25.0464 34.3779L25.0422 34.3903L25.9895 34.7107ZM29.3895 28.7607L30.1466 29.414L30.1466 29.414L29.3895 28.7607ZM34.7395 24.7107L34.315 23.8053L34.3095 23.8079L34.7395 24.7107ZM47.5895 24.0607L47.284 25.013L47.2922 25.0156L47.3004 25.0181L47.5895 24.0607ZM52.2395 26.4607L51.6148 27.2416L51.6254 27.2502L51.6363 27.2584L52.2395 26.4607ZM55.5395 30.2607L54.6653 30.7464L54.6653 30.7464L55.5395 30.2607ZM57.0895 35.4107V36.4107H58.1982L58.0841 35.3078L57.0895 35.4107ZM51.8077 35.1609C51.5226 34.056 51.1278 33.0299 50.6199 32.0866L48.859 33.0348C49.2844 33.8249 49.623 34.6988 49.8712 35.6606L51.8077 35.1609ZM50.6199 32.0866C50.0964 31.1144 49.4201 30.2682 48.5931 29.5539L47.2858 31.0676C47.9255 31.62 48.4491 32.2737 48.859 33.0348L50.6199 32.0866ZM48.5931 29.5539C47.7525 28.828 46.7686 28.283 45.6557 27.9121L45.0232 29.8094C45.9103 30.1051 46.6597 30.5268 47.2858 31.0676L48.5931 29.5539ZM45.6941 27.9257C44.5892 27.5066 43.3307 27.3107 41.9395 27.3107V29.3107C43.1482 29.3107 44.1564 29.4815 44.9848 29.7957L45.6941 27.9257ZM41.9395 27.3107C39.9035 27.3107 38.0821 27.7223 36.5091 28.5836L37.4698 30.3378C38.6968 29.6659 40.1754 29.3107 41.9395 29.3107V27.3107ZM36.5002 28.5886C34.9962 29.4323 33.7619 30.5742 32.8074 32.006L34.4715 33.1154C35.2503 31.9472 36.2493 31.0225 37.4787 30.3329L36.5002 28.5886ZM32.8141 31.9961C31.877 33.3657 31.1825 34.922 30.7229 36.6543L32.656 37.1672C33.0631 35.6328 33.6685 34.2891 34.4648 33.1254L32.8141 31.9961ZM30.7182 36.6729C30.2989 38.3849 30.0895 40.1315 30.0895 41.9107H32.0895C32.0895 40.29 32.28 38.7032 32.6608 37.1486L30.7182 36.6729ZM30.0895 41.9107C30.0895 43.69 30.2989 45.4366 30.7182 47.1486L32.6608 46.6729C32.28 45.1182 32.0895 43.5315 32.0895 41.9107H30.0895ZM30.7229 47.1672C31.1821 48.898 31.8751 50.4669 32.8074 51.8654L34.4715 50.756C33.6705 49.5546 33.0635 48.1902 32.656 46.6543L30.7229 47.1672ZM32.8141 51.8754C33.7696 53.2718 35.0023 54.3926 36.5002 55.2329L37.4787 53.4886C36.2433 52.7956 35.2427 51.883 34.4648 50.7461L32.8141 51.8754ZM36.5091 55.2378C38.0821 56.0992 39.9035 56.5107 41.9395 56.5107V54.5107C40.1754 54.5107 38.6968 54.1556 37.4698 53.4836L36.5091 55.2378ZM41.9395 56.5107C43.45 56.5107 44.8243 56.2589 46.0403 55.7269L45.2386 53.8946C44.3213 54.2959 43.2289 54.5107 41.9395 54.5107V56.5107ZM46.0639 55.7162C47.2434 55.1633 48.2672 54.4206 49.1254 53.4878L47.6535 52.1337C46.9784 52.8675 46.1688 53.4582 45.215 53.9053L46.0639 55.7162ZM49.1384 53.4733C49.9884 52.5124 50.6494 51.4078 51.1235 50.1679L49.2554 49.4536C48.8628 50.4804 48.3238 51.3757 47.6405 52.1482L49.1384 53.4733ZM51.1235 50.1679C51.5905 48.9465 51.8926 47.6434 52.0342 46.2628L50.0447 46.0587C49.9196 47.2781 49.6551 48.4083 49.2554 49.4536L51.1235 50.1679ZM51.0395 47.1607H57.1395V45.1607H51.0395V47.1607ZM56.1414 46.0984C56.0149 48.123 55.5736 49.9528 54.8285 51.5982L56.6504 52.4232C57.5053 50.5354 57.9974 48.4651 58.1375 46.2231L56.1414 46.0984ZM54.8221 51.6126C54.1054 53.2643 53.1285 54.6886 51.8914 55.8947L53.2876 57.3267C54.7171 55.9329 55.8402 54.2906 56.6568 52.4088L54.8221 51.6126ZM51.9007 55.8857C50.6663 57.0584 49.212 57.9735 47.527 58.6287L48.2519 60.4927C50.1669 59.748 51.8459 58.6964 53.2782 57.3357L51.9007 55.8857ZM47.527 58.6287C45.8558 59.2787 43.9972 59.6107 41.9395 59.6107V61.6107C44.2151 61.6107 46.3231 61.2428 48.2519 60.4927L47.527 58.6287ZM41.9395 59.6107C39.3954 59.6107 37.139 59.1502 35.1522 58.2499L34.3267 60.0716C36.6065 61.1046 39.1501 61.6107 41.9395 61.6107V59.6107ZM35.1694 58.2579C33.19 57.3153 31.5194 56.0487 30.1466 54.4575L28.6323 55.764C30.1928 57.5728 32.0889 59.0062 34.3095 60.0636L35.1694 58.2579ZM30.1466 54.4575C28.7669 52.8583 27.6939 50.9855 26.9324 48.8279L25.0465 49.4936C25.885 51.8693 27.0787 53.9632 28.6323 55.764L30.1466 54.4575ZM26.9367 48.8403C26.2074 46.6841 25.8395 44.3764 25.8395 41.9107H23.8395C23.8395 44.5784 24.2381 47.104 25.0422 49.4811L26.9367 48.8403ZM25.8395 41.9107C25.8395 39.4799 26.207 37.1887 26.9367 35.0311L25.0422 34.3903C24.2386 36.7661 23.8395 39.2749 23.8395 41.9107H25.8395ZM26.9324 35.0436C27.6939 32.886 28.7669 31.0132 30.1466 29.414L28.6323 28.1075C27.0787 29.9083 25.885 32.0022 25.0465 34.3779L26.9324 35.0436ZM30.1466 29.414C31.5194 27.8228 33.19 26.5562 35.1694 25.6136L34.3095 23.8079C32.0889 24.8653 30.1928 26.2987 28.6323 28.1075L30.1466 29.414ZM35.1639 25.6162C37.1479 24.6862 39.4001 24.2107 41.9395 24.2107V22.2107C39.1455 22.2107 36.5977 22.7353 34.315 23.8053L35.1639 25.6162ZM41.9395 24.2107C43.8439 24.2107 45.6235 24.4803 47.284 25.013L47.8949 23.1085C46.0221 22.5078 44.0351 22.2107 41.9395 22.2107V24.2107ZM47.3004 25.0181C48.9549 25.5175 50.3888 26.2609 51.6148 27.2416L52.8641 25.6799C51.4234 24.5273 49.7573 23.6706 47.8785 23.1034L47.3004 25.0181ZM51.6363 27.2584C52.8917 28.2076 53.8995 29.3679 54.6653 30.7464L56.4136 29.7751C55.5127 28.1535 54.3205 26.7805 52.8426 25.6631L51.6363 27.2584ZM54.6653 30.7464C55.4248 32.1136 55.9068 33.6969 56.0948 35.5136L58.0841 35.3078C57.8721 33.2579 57.3207 31.4079 56.4136 29.7751L54.6653 30.7464ZM57.0895 34.4107H50.8395V36.4107H57.0895V34.4107ZM67.6734 24.0607V23.0607H66.6734V24.0607H67.6734ZM73.9234 24.0607H74.9234V23.0607H73.9234V24.0607ZM73.9234 38.2607H72.9234V39.2607H73.9234V38.2607ZM90.1734 38.2607V39.2607H91.1734V38.2607H90.1734ZM90.1734 24.0607V23.0607H89.1734V24.0607H90.1734ZM96.4234 24.0607H97.4234V23.0607H96.4234V24.0607ZM96.4234 59.7607V60.7607H97.4234V59.7607H96.4234ZM90.1734 59.7607H89.1734V60.7607H90.1734V59.7607ZM90.1734 43.6607H91.1734V42.6607H90.1734V43.6607ZM73.9234 43.6607V42.6607H72.9234V43.6607H73.9234ZM73.9234 59.7607V60.7607H74.9234V59.7607H73.9234ZM67.6734 59.7607H66.6734V60.7607H67.6734V59.7607ZM67.6734 25.0607H73.9234V23.0607H67.6734V25.0607ZM72.9234 24.0607V38.2607H74.9234V24.0607H72.9234ZM73.9234 39.2607H90.1734V37.2607H73.9234V39.2607ZM91.1734 38.2607V24.0607H89.1734V38.2607H91.1734ZM90.1734 25.0607H96.4234V23.0607H90.1734V25.0607ZM95.4234 24.0607V59.7607H97.4234V24.0607H95.4234ZM96.4234 58.7607H90.1734V60.7607H96.4234V58.7607ZM91.1734 59.7607V43.6607H89.1734V59.7607H91.1734ZM90.1734 42.6607H73.9234V44.6607H90.1734V42.6607ZM72.9234 43.6607V59.7607H74.9234V43.6607H72.9234ZM73.9234 58.7607H67.6734V60.7607H73.9234V58.7607ZM68.6734 59.7607V24.0607H66.6734V59.7607H68.6734ZM108.907 24.0607V23.0607H107.907V24.0607H108.907ZM134.807 26.6107L134.153 27.3673L134.807 26.6107ZM137.007 37.9607L137.918 38.3746L137.922 38.3644L137.007 37.9607ZM135.257 40.6607L135.965 41.3678L135.973 41.3592L135.982 41.3504L135.257 40.6607ZM133.257 42.1107L132.847 41.1988L132.838 41.2028L132.829 41.207L133.257 42.1107ZM131.857 42.7107L131.541 41.7621L130.857 41.99V42.7107H131.857ZM131.857 42.8107H130.857V43.6935L131.733 43.803L131.857 42.8107ZM133.557 43.3107L133.151 44.2246L133.16 44.2286L133.169 44.2324L133.557 43.3107ZM135.307 44.6107L134.56 45.2751L134.569 45.2857L134.579 45.2961L135.307 44.6107ZM136.607 46.8607L135.666 47.1971L135.671 47.2118L135.677 47.2264L136.607 46.8607ZM137.607 56.1107L136.622 56.2813L136.624 56.2922L136.626 56.3032L137.607 56.1107ZM139.107 59.7607V60.7607H141.368L139.847 59.0881L139.107 59.7607ZM132.407 59.7607L131.553 60.2807L131.845 60.7607H132.407V59.7607ZM131.557 57.2107L130.56 57.282L130.561 57.2997L130.563 57.3173L131.557 57.2107ZM131.157 50.3107L130.171 50.4751L130.172 50.4797L131.157 50.3107ZM130.057 47.3607L129.225 47.9154L129.231 47.9237L129.237 47.9318L130.057 47.3607ZM127.857 45.6107L127.48 46.5369L127.492 46.5415L127.857 45.6107ZM115.157 45.0607V44.0607H114.157V45.0607H115.157ZM115.157 59.7607V60.7607H116.157V59.7607H115.157ZM108.907 59.7607H107.907V60.7607H108.907V59.7607ZM115.157 40.3107H114.157V41.3107H115.157V40.3107ZM129.957 38.9107L130.628 39.6528L130.634 39.647L130.641 39.641L129.957 38.9107ZM131.007 31.8607L130.097 32.2745L130.101 32.2826L130.105 32.2907L131.007 31.8607ZM129.607 30.1607L129.031 30.9777L129.042 30.9854L129.053 30.9928L129.607 30.1607ZM127.607 29.3607L127.429 30.3446L127.436 30.346L127.607 29.3607ZM115.157 29.1607V28.1607H114.157V29.1607H115.157ZM108.907 25.0607H125.957V23.0607H108.907V25.0607ZM125.957 25.0607C129.769 25.0607 132.442 25.8876 134.153 27.3673L135.461 25.8542C133.24 23.9338 130.012 23.0607 125.957 23.0607V25.0607ZM134.153 27.3673C135.863 28.8449 136.757 30.9143 136.757 33.7107H138.757C138.757 30.4405 137.685 27.7766 135.461 25.8542L134.153 27.3673ZM136.757 33.7107C136.757 35.3203 136.52 36.5889 136.093 37.5571L137.922 38.3644C138.495 37.0659 138.757 35.5011 138.757 33.7107H136.757ZM136.097 37.5469C135.632 38.5696 135.106 39.3693 134.533 39.9711L135.982 41.3504C136.742 40.5522 137.383 39.5519 137.918 38.3745L136.097 37.5469ZM134.55 39.9536C133.946 40.5582 133.376 40.9606 132.847 41.1988L133.668 43.0227C134.472 42.6609 135.236 42.0966 135.965 41.3678L134.55 39.9536ZM132.829 41.207C132.2 41.5053 131.78 41.6826 131.541 41.7621L132.174 43.6594C132.535 43.5389 133.049 43.3162 133.686 43.0145L132.829 41.207ZM130.857 42.7107V42.8107H132.857V42.7107H130.857ZM131.733 43.803C132.151 43.8552 132.622 43.9893 133.151 44.2246L133.964 42.3969C133.293 42.0989 132.631 41.8996 131.981 41.8185L131.733 43.803ZM133.169 44.2324C133.644 44.4322 134.109 44.7679 134.56 45.2751L136.055 43.9464C135.439 43.2535 134.738 42.7226 133.945 42.3891L133.169 44.2324ZM134.579 45.2961C134.996 45.739 135.366 46.3594 135.666 47.1971L137.549 46.5244C137.182 45.4954 136.685 44.6159 136.036 43.9254L134.579 45.2961ZM135.677 47.2264C135.983 48.007 136.157 49.0399 136.157 50.3607H138.157C138.157 48.8816 137.965 47.5812 137.538 46.4951L135.677 47.2264ZM136.157 50.3607C136.157 52.5073 136.311 54.4821 136.622 56.2813L138.593 55.9402C138.304 54.2728 138.157 52.4142 138.157 50.3607H136.157ZM136.626 56.3032C136.972 58.0654 137.517 59.498 138.367 60.4334L139.847 59.0881C139.364 58.5568 138.91 57.5561 138.589 55.9183L136.626 56.3032ZM139.107 58.7607H132.407V60.7607H139.107V58.7607ZM133.262 59.2408C132.875 58.6057 132.637 57.898 132.552 57.1042L130.563 57.3173C130.678 58.3902 131.006 59.3824 131.553 60.2807L133.262 59.2408ZM132.555 57.1395C132.49 56.228 132.457 55.3518 132.457 54.5107H130.457C130.457 55.403 130.492 56.3268 130.56 57.282L132.555 57.1395ZM132.457 54.5107C132.457 52.8404 132.355 51.3807 132.143 50.1418L130.172 50.4797C130.359 51.5741 130.457 52.9144 130.457 54.5107H132.457ZM132.144 50.1463C131.927 48.8427 131.518 47.7089 130.878 46.7897L129.237 47.9318C129.664 48.5459 129.988 49.3788 130.171 50.4751L132.144 50.1463ZM130.889 46.806C130.238 45.8284 129.338 45.118 128.223 44.68L127.492 46.5415C128.244 46.8368 128.81 47.2931 129.225 47.9154L130.889 46.806ZM128.235 44.6846C127.172 44.2518 125.864 44.0607 124.357 44.0607V46.0607C125.717 46.0607 126.743 46.2364 127.48 46.5368L128.235 44.6846ZM124.357 44.0607H115.157V46.0607H124.357V44.0607ZM114.157 45.0607V59.7607H116.157V45.0607H114.157ZM115.157 58.7607H108.907V60.7607H115.157V58.7607ZM109.907 59.7607V24.0607H107.907V59.7607H109.907ZM115.157 41.3107H125.407V39.3107H115.157V41.3107ZM125.407 41.3107C127.548 41.3107 129.344 40.8121 130.628 39.6528L129.287 38.1686C128.504 38.876 127.267 39.3107 125.407 39.3107V41.3107ZM130.641 39.641C131.938 38.427 132.507 36.6887 132.507 34.6107H130.507C130.507 36.3328 130.043 37.4612 129.274 38.1805L130.641 39.641ZM132.507 34.6107C132.507 33.392 132.33 32.3125 131.91 31.4308L130.105 32.2907C130.351 32.809 130.507 33.5629 130.507 34.6107H132.507ZM131.918 31.4469C131.517 30.5642 130.935 29.844 130.162 29.3287L129.053 30.9928C129.48 31.2775 129.832 31.6906 130.097 32.2745L131.918 31.4469ZM130.184 29.3438C129.482 28.8485 128.673 28.5311 127.779 28.3755L127.436 30.346C128.075 30.457 128.599 30.673 129.031 30.9777L130.184 29.3438ZM127.786 28.3769C126.99 28.2321 126.163 28.1607 125.307 28.1607V30.1607C126.052 30.1607 126.758 30.2228 127.429 30.3446L127.786 28.3769ZM125.307 28.1607H115.157V30.1607H125.307V28.1607ZM114.157 29.1607V40.3107H116.157V29.1607H114.157ZM149.113 24.0607V23.0607H148.113V24.0607H149.113ZM155.363 24.0607H156.363V23.0607H155.363V24.0607ZM155.363 59.7607V60.7607H156.363V59.7607H155.363ZM149.113 59.7607H148.113V60.7607H149.113V59.7607ZM149.113 25.0607H155.363V23.0607H149.113V25.0607ZM154.363 24.0607V59.7607H156.363V24.0607H154.363ZM155.363 58.7607H149.113V60.7607H155.363V58.7607ZM150.113 59.7607V24.0607H148.113V59.7607H150.113ZM172.129 47.8607H173.129V46.8607H172.129V47.8607ZM174.779 53.7607L174.173 54.5569L174.184 54.5647L174.194 54.5723L174.779 53.7607ZM177.629 55.1107L177.358 56.0734L177.375 56.0783L177.393 56.0826L177.629 55.1107ZM184.679 55.0607L184.975 56.0158L184.99 56.0112L185.005 56.0061L184.679 55.0607ZM187.029 53.8107L186.388 53.0425L187.029 53.8107ZM188.329 52.1107L189.25 52.4988L189.254 52.4905L189.257 52.4821L188.329 52.1107ZM187.779 47.1107L187.035 47.7797L187.053 47.7993L187.071 47.8178L187.779 47.1107ZM185.779 45.7107L185.433 46.6491L185.437 46.6505L185.779 45.7107ZM181.329 44.4107L181.077 45.3786L181.088 45.3815L181.099 45.3842L181.329 44.4107ZM175.129 42.7607L175.389 41.7953L175.381 41.7931L175.129 42.7607ZM171.279 41.2107L170.724 42.0428L170.74 42.0534L170.756 42.0633L171.279 41.2107ZM168.879 39.0107L168.079 39.6107L168.079 39.6107L168.879 39.0107ZM167.579 36.4607L166.611 36.7117L166.615 36.7283L166.62 36.7448L167.579 36.4607ZM168.329 29.0607L167.462 28.5623L167.458 28.5694L168.329 29.0607ZM171.329 25.7607L171.903 26.5789L171.903 26.5789L171.329 25.7607ZM175.529 23.8607L175.776 24.8297L175.786 24.8272L175.795 24.8246L175.529 23.8607ZM185.529 23.9607L185.236 24.9169L185.247 24.9205L185.259 24.9237L185.529 23.9607ZM189.879 26.1107L189.262 26.8979L189.272 26.9057L189.879 26.1107ZM192.879 29.7107L191.988 30.1662L191.993 30.1747L192.879 29.7107ZM193.979 34.6107V35.6107H194.979V34.6107H193.979ZM187.729 34.6107L186.731 34.683L186.798 35.6107H187.729V34.6107ZM185.379 29.7607L184.81 30.5836L184.817 30.5883L184.824 30.5928L185.379 29.7607ZM177.779 28.5607L177.95 29.546L177.97 29.5424L177.991 29.5379L177.779 28.5607ZM175.679 29.3107L176.144 30.1957L176.162 30.1863L176.18 30.1762L175.679 29.3107ZM174.079 30.7107L173.268 30.1253L173.257 30.1404L173.246 30.156L174.079 30.7107ZM174.629 35.9607L173.937 36.6834L173.953 36.6987L173.97 36.7133L174.629 35.9607ZM177.729 37.5607L177.45 38.5213L177.468 38.5264L177.486 38.5309L177.729 37.5607ZM179.279 38.0107L178.994 38.9695L179.015 38.9757L179.036 38.9809L179.279 38.0107ZM182.379 38.8107L182.123 39.7774L182.123 39.7774L182.379 38.8107ZM185.679 39.7107L185.408 40.6734L185.425 40.6783L185.443 40.6826L185.679 39.7107ZM188.029 40.3107L188.328 39.3567L188.316 39.3528L188.303 39.3492L188.029 40.3107ZM191.079 41.8107L190.488 42.6181L190.488 42.6181L191.079 41.8107ZM193.229 44.0107L192.402 44.5731L192.415 44.5922L192.429 44.6107L193.229 44.0107ZM194.529 46.6107L193.567 46.8855L193.571 46.9012L193.576 46.9168L194.529 46.6107ZM193.729 54.5607L192.864 54.0581L192.86 54.0646L193.729 54.5607ZM190.529 58.0107L189.969 57.1819L189.969 57.1819L190.529 58.0107ZM185.979 59.9607L185.749 58.9873L185.74 58.9894L185.732 58.9917L185.979 59.9607ZM175.029 59.8607L175.296 58.8972L175.029 59.8607ZM170.329 57.5607L170.941 56.7703L170.941 56.7703L170.329 57.5607ZM167.129 53.6107L166.23 54.0506L166.234 54.058L167.129 53.6107ZM165.879 47.8607V46.8607H164.863L164.879 47.8759L165.879 47.8607ZM171.129 47.8607C171.129 49.3381 171.38 50.6614 171.928 51.7955L173.729 50.926C173.343 50.1267 173.129 49.1167 173.129 47.8607H171.129ZM171.928 51.7955C172.461 52.9005 173.211 53.8256 174.173 54.5569L175.384 52.9646C174.679 52.4292 174.129 51.7543 173.729 50.926L171.928 51.7955ZM174.194 54.5723C175.13 55.2458 176.187 55.7442 177.358 56.0734L177.899 54.1481C176.936 53.8772 176.094 53.4757 175.363 52.9492L174.194 54.5723ZM177.393 56.0826C178.579 56.37 179.842 56.5107 181.179 56.5107V54.5107C179.982 54.5107 178.878 54.3848 177.864 54.1389L177.393 56.0826ZM181.179 56.5107C182.613 56.5107 183.885 56.3539 184.975 56.0158L184.382 54.1057C183.538 54.3675 182.477 54.5107 181.179 54.5107V56.5107ZM185.005 56.0061C186.052 55.6448 186.952 55.1764 187.669 54.579L186.388 53.0425C185.905 53.445 185.238 53.81 184.353 54.1154L185.005 56.0061ZM187.669 54.579C188.375 53.9907 188.913 53.2986 189.25 52.4988L187.407 51.7227C187.21 52.1896 186.882 52.6308 186.388 53.0425L187.669 54.579ZM189.257 52.4821C189.567 51.7065 189.729 50.9141 189.729 50.1107H187.729C187.729 50.6407 187.623 51.1816 187.4 51.7394L189.257 52.4821ZM189.729 50.1107C189.729 48.6157 189.385 47.3031 188.486 46.4036L187.071 47.8178C187.439 48.1851 187.729 48.8724 187.729 50.1107H189.729ZM188.522 46.4418C187.829 45.6716 187.029 45.1015 186.12 44.7709L185.437 46.6505C185.994 46.8533 186.528 47.2165 187.035 47.7797L188.522 46.4418ZM186.124 44.7724C184.81 44.2883 183.286 43.8441 181.558 43.4373L181.099 45.3842C182.771 45.7774 184.213 46.1998 185.433 46.6491L186.124 44.7724ZM181.58 43.4429C179.918 43.0107 177.854 42.4616 175.389 41.7954L174.868 43.7261C177.336 44.3932 179.406 44.9441 181.077 45.3786L181.58 43.4429ZM175.381 41.7931C173.915 41.4108 172.729 40.9271 171.801 40.3581L170.756 42.0633C171.894 42.7611 173.275 43.3107 174.876 43.7284L175.381 41.7931ZM171.833 40.3787C170.909 39.7626 170.198 39.1038 169.679 38.4107L168.079 39.6107C168.759 40.5176 169.648 41.3256 170.724 42.0428L171.833 40.3787ZM169.679 38.4107C169.145 37.6995 168.768 36.9555 168.537 36.1767L166.62 36.7448C166.922 37.766 167.412 38.722 168.079 39.6107L169.679 38.4107ZM168.547 36.2098C168.335 35.3921 168.229 34.5597 168.229 33.7107H166.229C166.229 34.7284 166.356 35.7294 166.611 36.7117L168.547 36.2098ZM168.229 33.7107C168.229 32.0475 168.567 30.6741 169.199 29.5521L167.458 28.5694C166.624 30.0474 166.229 31.774 166.229 33.7107H168.229ZM169.195 29.5592C169.891 28.3498 170.792 27.3599 171.903 26.5789L170.754 24.9425C169.398 25.8949 168.3 27.105 167.462 28.5623L169.195 29.5592ZM171.903 26.5789C173.031 25.7869 174.318 25.2019 175.776 24.8297L175.281 22.8918C173.606 23.3196 172.093 24.0013 170.754 24.9426L171.903 26.5789ZM175.795 24.8246C177.276 24.4148 178.77 24.2107 180.279 24.2107V22.2107C178.587 22.2107 176.914 22.44 175.262 22.8969L175.795 24.8246ZM180.279 24.2107C182.055 24.2107 183.706 24.4485 185.236 24.9169L185.821 23.0045C184.085 22.4729 182.235 22.2107 180.279 22.2107V24.2107ZM185.259 24.9237C186.813 25.3587 188.142 26.02 189.262 26.8978L190.495 25.3237C189.149 24.2681 187.578 23.4961 185.798 22.9978L185.259 24.9237ZM189.272 26.9057C190.419 27.7808 191.322 28.8644 191.988 30.1662L193.769 29.2553C192.968 27.6905 191.872 26.374 190.485 25.3158L189.272 26.9057ZM191.993 30.1747C192.639 31.4078 192.979 32.8765 192.979 34.6107H194.979C194.979 32.6117 194.585 30.8137 193.764 29.2467L191.993 30.1747ZM193.979 33.6107H187.729V35.6107H193.979V33.6107ZM188.726 34.5385C188.546 32.0522 187.677 30.0913 185.933 28.9287L184.824 30.5928C185.88 31.2969 186.578 32.5693 186.731 34.683L188.726 34.5385ZM185.947 28.9378C184.339 27.8279 182.343 27.3107 180.029 27.3107V29.3107C182.048 29.3107 183.618 29.7603 184.81 30.5836L185.947 28.9378ZM180.029 27.3107C179.219 27.3107 178.398 27.4028 177.566 27.5836L177.991 29.5379C178.693 29.3854 179.371 29.3107 180.029 29.3107V27.3107ZM177.607 27.5755C176.732 27.7278 175.919 28.016 175.177 28.4453L176.18 30.1762C176.705 29.8722 177.292 29.6604 177.95 29.546L177.607 27.5755ZM175.213 28.4258C174.438 28.8335 173.788 29.4046 173.268 30.1253L174.889 31.2962C175.235 30.8169 175.652 30.4546 176.144 30.1957L175.213 28.4258ZM173.246 30.156C172.713 30.9569 172.479 31.9124 172.479 32.9607H174.479C174.479 32.2091 174.644 31.6646 174.911 31.2654L173.246 30.156ZM172.479 32.9607C172.479 34.4432 172.936 35.7252 173.937 36.6834L175.32 35.2381C174.788 34.7296 174.479 34.0116 174.479 32.9607H172.479ZM173.97 36.7133C174.903 37.5299 176.076 38.1235 177.45 38.5213L178.007 36.6002C176.847 36.2646 175.954 35.7916 175.287 35.2082L173.97 36.7133ZM177.486 38.5309C177.592 38.5575 178.08 38.6986 178.994 38.9695L179.563 37.0519C178.677 36.7895 178.131 36.6307 177.971 36.5906L177.486 38.5309ZM179.036 38.9809C179.964 39.2129 180.993 39.4784 182.123 39.7774L182.634 37.844C181.498 37.5431 180.46 37.2753 179.521 37.0406L179.036 38.9809ZM182.123 39.7774C183.251 40.0762 184.346 40.3749 185.408 40.6734L185.949 38.7481C184.877 38.4466 183.772 38.1453 182.634 37.844L182.123 39.7774ZM185.443 40.6826C186.542 40.9491 187.308 41.145 187.754 41.2723L188.303 39.3492C187.815 39.2098 187.015 39.0057 185.914 38.7389L185.443 40.6826ZM187.729 41.2647C188.806 41.6032 189.721 42.0574 190.488 42.6181L191.669 41.0034C190.702 40.2974 189.585 39.7516 188.328 39.3567L187.729 41.2647ZM190.488 42.6181C191.269 43.1884 191.903 43.8404 192.402 44.5731L194.055 43.4484C193.42 42.5144 192.622 41.6998 191.669 41.0033L190.488 42.6181ZM192.429 44.6107C192.958 45.3161 193.335 46.0731 193.567 46.8855L195.49 46.336C195.189 45.2818 194.7 44.3054 194.029 43.4107L192.429 44.6107ZM193.576 46.9168C193.846 47.7562 193.979 48.5864 193.979 49.4107H195.979C195.979 48.3684 195.811 47.3319 195.481 46.3047L193.576 46.9168ZM193.979 49.4107C193.979 51.2706 193.592 52.8061 192.864 54.0581L194.593 55.0634C195.532 53.4487 195.979 51.5509 195.979 49.4107H193.979ZM192.86 54.0646C192.136 55.3318 191.175 56.3679 189.969 57.1819L191.088 58.8396C192.549 57.8536 193.721 56.5897 194.597 55.0569L192.86 54.0646ZM189.969 57.1819C188.744 58.0085 187.342 58.6127 185.749 58.9873L186.208 60.9342C188.015 60.5088 189.646 59.813 191.088 58.8396L189.969 57.1819ZM185.732 58.9917C184.113 59.4043 182.462 59.6107 180.779 59.6107V61.6107C182.628 61.6107 184.444 61.3838 186.226 60.9298L185.732 58.9917ZM180.779 59.6107C178.828 59.6107 177.002 59.371 175.296 58.8972L174.761 60.8243C176.655 61.3505 178.663 61.6107 180.779 61.6107V59.6107ZM175.296 58.8972C173.608 58.4282 172.161 57.716 170.941 56.7703L169.716 58.3512C171.162 59.4722 172.849 60.2932 174.761 60.8243L175.296 58.8972ZM170.941 56.7703C169.733 55.8343 168.76 54.6377 168.023 53.1635L166.234 54.058C167.097 55.7837 168.257 57.2205 169.716 58.3512L170.941 56.7703ZM168.027 53.1709C167.304 51.6947 166.91 49.9286 166.878 47.8456L164.879 47.8759C164.914 50.1928 165.353 52.2601 166.23 54.0506L168.027 53.1709ZM165.879 48.8607H172.129V46.8607H165.879V48.8607ZM69.0621 85.0607V84.0607H68.0621V85.0607H69.0621ZM97.9621 85.0607H98.9621V84.0607H97.9621V85.0607ZM97.9621 90.4607V91.4607H98.9621V90.4607H97.9621ZM86.6121 90.4607V89.4607H85.6121V90.4607H86.6121ZM86.6121 120.761V121.761H87.6121V120.761H86.6121ZM80.3621 120.761H79.3621V121.761H80.3621V120.761ZM80.3621 90.4607H81.3621V89.4607H80.3621V90.4607ZM69.0621 90.4607H68.0621V91.4607H69.0621V90.4607ZM69.0621 86.0607H97.9621V84.0607H69.0621V86.0607ZM96.9621 85.0607V90.4607H98.9621V85.0607H96.9621ZM97.9621 89.4607H86.6121V91.4607H97.9621V89.4607ZM85.6121 90.4607V120.761H87.6121V90.4607H85.6121ZM86.6121 119.761H80.3621V121.761H86.6121V119.761ZM81.3621 120.761V90.4607H79.3621V120.761H81.3621ZM80.3621 89.4607H69.0621V91.4607H80.3621V89.4607ZM70.0621 90.4607V85.0607H68.0621V90.4607H70.0621ZM107.101 85.0607V84.0607H106.101V85.0607H107.101ZM113.351 85.0607H114.351V84.0607H113.351V85.0607ZM113.351 120.761V121.761H114.351V120.761H113.351ZM107.101 120.761H106.101V121.761H107.101V120.761ZM107.101 86.0607H113.351V84.0607H107.101V86.0607ZM112.351 85.0607V120.761H114.351V85.0607H112.351ZM113.351 119.761H107.101V121.761H113.351V119.761ZM108.101 120.761V85.0607H106.101V120.761H108.101ZM125.767 85.0607V84.0607H124.767V85.0607H125.767ZM132.367 85.0607L133.217 84.5339L132.924 84.0607H132.367V85.0607ZM148.667 111.361L147.817 111.888L148.11 112.361H148.667V111.361ZM148.767 111.361V112.361H149.767V111.361H148.767ZM148.767 85.0607V84.0607H147.767V85.0607H148.767ZM154.717 85.0607H155.717V84.0607H154.717V85.0607ZM154.717 120.761V121.761H155.717V120.761H154.717ZM148.117 120.761L147.267 121.287L147.56 121.761H148.117V120.761ZM131.867 94.5107L132.717 93.9844L132.424 93.5107H131.867V94.5107ZM131.717 94.5107V93.5107H130.717V94.5107H131.717ZM131.717 120.761V121.761H132.717V120.761H131.717ZM125.767 120.761H124.767V121.761H125.767V120.761ZM125.767 86.0607H132.367V84.0607H125.767V86.0607ZM131.517 85.5875L147.817 111.888L149.517 110.834L133.217 84.5339L131.517 85.5875ZM148.667 112.361H148.767V110.361H148.667V112.361ZM149.767 111.361V85.0607H147.767V111.361H149.767ZM148.767 86.0607H154.717V84.0607H148.767V86.0607ZM153.717 85.0607V120.761H155.717V85.0607H153.717ZM154.717 119.761H148.117V121.761H154.717V119.761ZM148.967 120.234L132.717 93.9844L131.017 95.0371L147.267 121.287L148.967 120.234ZM131.867 93.5107H131.717V95.5107H131.867V93.5107ZM130.717 94.5107V120.761H132.717V94.5107H130.717ZM131.717 119.761H125.767V121.761H131.717V119.761ZM126.767 120.761V85.0607H124.767V120.761H126.767ZM176.651 85.0607V84.0607H175.963L175.717 84.7025L176.651 85.0607ZM183.301 85.0607L184.234 84.7013L183.987 84.0607H183.301V85.0607ZM197.051 120.761V121.761H198.508L197.984 120.401L197.051 120.761ZM190.351 120.761L189.408 121.095L189.644 121.761H190.351V120.761ZM187.001 111.311L187.943 110.977L187.707 110.311H187.001V111.311ZM172.751 111.311V110.311H172.044L171.808 110.977L172.751 111.311ZM169.401 120.761V121.761H170.107L170.343 121.095L169.401 120.761ZM162.951 120.761L162.017 120.402L161.496 121.761H162.951V120.761ZM174.451 106.561L173.507 106.229L173.039 107.561H174.451V106.561ZM185.351 106.561V107.561H186.758L186.295 106.232L185.351 106.561ZM180.001 91.2107L180.945 90.8816L180.711 90.2107H180.001V91.2107ZM179.851 91.2107V90.2107H179.143L178.907 90.8789L179.851 91.2107ZM176.651 86.0607H183.301V84.0607H176.651V86.0607ZM182.368 85.4202L196.118 121.12L197.984 120.401L184.234 84.7013L182.368 85.4202ZM197.051 119.761H190.351V121.761H197.051V119.761ZM191.293 120.427L187.943 110.977L186.058 111.645L189.408 121.095L191.293 120.427ZM187.001 110.311H172.751V112.311H187.001V110.311ZM171.808 110.977L168.458 120.427L170.343 121.095L173.693 111.645L171.808 110.977ZM169.401 119.761H162.951V121.761H169.401V119.761ZM163.884 121.119L177.584 85.419L175.717 84.7025L162.017 120.402L163.884 121.119ZM174.451 107.561H185.351V105.561H174.451V107.561ZM186.295 106.232L180.945 90.8816L179.056 91.5399L184.406 106.89L186.295 106.232ZM180.001 90.2107H179.851V92.2107H180.001V90.2107ZM178.907 90.8789L173.507 106.229L175.394 106.893L180.794 91.5426L178.907 90.8789Z" fill="#5934D5"/>
<path d="M34.6048 100.184L35.6777 92.2156L39.7615 104.326C42.0036 110.975 47.349 116.112 54.0818 118.087L59.0641 119.549L52.832 121.788C46.7276 123.982 41.94 128.815 39.8033 134.94L34.9707 148.792L32.2176 135.911C30.8137 129.343 26.4211 123.809 20.3435 120.95L16.393 119.092L20.7478 117.483C28.2121 114.725 33.543 108.07 34.6048 100.184Z" fill="#F0C079" stroke="#5934D5" stroke-width="3"/>
<path d="M231.727 17.1375L232.122 6.7182L238.438 20.8168C241.307 27.2202 247.119 31.8209 254.011 33.1421L260.898 34.4626L253.217 38.0874C247.351 40.856 243.049 46.1251 241.509 52.4262L237.393 69.2657L232.645 54.2647C230.619 47.8613 225.716 42.7729 219.392 40.5096L213.767 38.4962L219.591 35.6843C226.757 32.2243 231.425 25.0893 231.727 17.1375Z" fill="#F0C079" stroke="#5934D5" stroke-width="3"/>
</svg>
