<svg width="184" height="114" viewBox="0 0 184 114" fill="none" xmlns="http://www.w3.org/2000/svg">
<path d="M35.5828 32.3017C35.3961 31.5784 35.1395 30.9134 34.8128 30.3067C34.4861 29.7001 34.0661 29.1751 33.5528 28.7317C33.0395 28.2884 32.4328 27.9501 31.7328 27.7167C31.0561 27.4601 30.2628 27.3317 29.3528 27.3317C28.0228 27.3317 26.8678 27.6001 25.8878 28.1367C24.9311 28.6734 24.1495 29.3967 23.5428 30.3067C22.9361 31.1934 22.4811 32.2084 22.1778 33.3517C21.8978 34.4951 21.7578 35.6617 21.7578 36.8517C21.7578 38.0417 21.8978 39.2084 22.1778 40.3517C22.4811 41.4951 22.9361 42.5217 23.5428 43.4317C24.1495 44.3184 24.9311 45.0301 25.8878 45.5667C26.8678 46.1034 28.0228 46.3717 29.3528 46.3717C30.3328 46.3717 31.1961 46.2084 31.9428 45.8817C32.6895 45.5317 33.3311 45.0651 33.8678 44.4817C34.4045 43.8751 34.8245 43.1751 35.1278 42.3817C35.4311 41.5884 35.6295 40.7367 35.7228 39.8267H39.9928C39.8995 41.3201 39.5728 42.6851 39.0128 43.9217C38.4761 45.1584 37.7411 46.2317 36.8078 47.1417C35.8745 48.0284 34.7778 48.7167 33.5178 49.2067C32.2578 49.6967 30.8695 49.9417 29.3528 49.9417C27.4861 49.9417 25.8061 49.6034 24.3128 48.9267C22.8428 48.2267 21.5945 47.2817 20.5678 46.0917C19.5411 44.9017 18.7478 43.5134 18.1878 41.9267C17.6511 40.3401 17.3828 38.6484 17.3828 36.8517C17.3828 35.0784 17.6511 33.3984 18.1878 31.8117C18.7478 30.2251 19.5411 28.8367 20.5678 27.6467C21.5945 26.4567 22.8428 25.5117 24.3128 24.8117C25.8061 24.1117 27.4861 23.7617 29.3528 23.7617C30.7528 23.7617 32.0711 23.9601 33.3078 24.3567C34.5445 24.7301 35.6295 25.2901 36.5628 26.0367C37.5195 26.7601 38.2895 27.6467 38.8728 28.6967C39.4561 29.7467 39.8178 30.9484 39.9578 32.3017H35.5828Z" fill="#3D209C"/>
<path d="M47.3666 24.3567H51.7416V34.2967H63.1166V24.3567H67.4916V49.3467H63.1166V38.0767H51.7416V49.3467H47.3666V24.3567Z" fill="#3D209C"/>
<path d="M76.2304 24.3567H88.1654C90.9187 24.3567 92.9837 24.9517 94.3604 26.1417C95.7371 27.3317 96.4254 28.9884 96.4254 31.1117C96.4254 32.3017 96.2504 33.2934 95.9004 34.0867C95.5504 34.8567 95.1421 35.4867 94.6754 35.9767C94.2087 36.4434 93.7421 36.7817 93.2754 36.9917C92.8321 37.2017 92.5054 37.3417 92.2954 37.4117V37.4817C92.6687 37.5284 93.0654 37.6451 93.4854 37.8317C93.9287 38.0184 94.3371 38.3217 94.7104 38.7417C95.0837 39.1384 95.3871 39.6634 95.6204 40.3167C95.8771 40.9701 96.0054 41.7867 96.0054 42.7667C96.0054 44.2367 96.1104 45.5784 96.3204 46.7917C96.5537 47.9817 96.9037 48.8334 97.3704 49.3467H92.6804C92.3537 48.8101 92.1554 48.2151 92.0854 47.5617C92.0387 46.9084 92.0154 46.2784 92.0154 45.6717C92.0154 44.5284 91.9454 43.5484 91.8054 42.7317C91.6654 41.8917 91.4087 41.2034 91.0354 40.6667C90.6621 40.1067 90.1487 39.6984 89.4954 39.4417C88.8654 39.1851 88.0487 39.0567 87.0454 39.0567H80.6054V49.3467H76.2304V24.3567ZM80.6054 35.7317H87.7804C89.1804 35.7317 90.2421 35.4051 90.9654 34.7517C91.6887 34.0751 92.0504 33.0717 92.0504 31.7417C92.0504 30.9484 91.9337 30.3067 91.7004 29.8167C91.4671 29.3034 91.1404 28.9067 90.7204 28.6267C90.3237 28.3467 89.8571 28.1601 89.3204 28.0667C88.8071 27.9734 88.2704 27.9267 87.7104 27.9267H80.6054V35.7317Z" fill="#3D209C"/>
<path d="M104.374 24.3567H108.749V49.3467H104.374V24.3567Z" fill="#3D209C"/>
<path d="M120.485 41.0167C120.485 41.9734 120.648 42.7901 120.975 43.4667C121.302 44.1434 121.757 44.7034 122.34 45.1467C122.923 45.5667 123.588 45.8817 124.335 46.0917C125.105 46.2784 125.933 46.3717 126.82 46.3717C127.777 46.3717 128.593 46.2667 129.27 46.0567C129.947 45.8234 130.495 45.5317 130.915 45.1817C131.335 44.8317 131.638 44.4351 131.825 43.9917C132.012 43.5251 132.105 43.0584 132.105 42.5917C132.105 41.6351 131.883 40.9351 131.44 40.4917C131.02 40.0251 130.553 39.6984 130.04 39.5117C129.153 39.1851 128.115 38.8817 126.925 38.6017C125.758 38.2984 124.312 37.9134 122.585 37.4467C121.512 37.1667 120.613 36.8051 119.89 36.3617C119.19 35.8951 118.63 35.3817 118.21 34.8217C117.79 34.2617 117.487 33.6667 117.3 33.0367C117.137 32.4067 117.055 31.7651 117.055 31.1117C117.055 29.8517 117.312 28.7667 117.825 27.8567C118.362 26.9234 119.062 26.1534 119.925 25.5467C120.788 24.9401 121.768 24.4967 122.865 24.2167C123.962 23.9134 125.07 23.7617 126.19 23.7617C127.497 23.7617 128.722 23.9367 129.865 24.2867C131.032 24.6134 132.047 25.1151 132.91 25.7917C133.797 26.4684 134.497 27.3084 135.01 28.3117C135.523 29.2917 135.78 30.4351 135.78 31.7417H131.405C131.288 30.1317 130.74 29.0001 129.76 28.3467C128.78 27.6701 127.532 27.3317 126.015 27.3317C125.502 27.3317 124.977 27.3901 124.44 27.5067C123.903 27.6001 123.413 27.7751 122.97 28.0317C122.527 28.2651 122.153 28.5917 121.85 29.0117C121.57 29.4317 121.43 29.9567 121.43 30.5867C121.43 31.4734 121.698 32.1734 122.235 32.6867C122.795 33.1767 123.518 33.5501 124.405 33.8067C124.498 33.8301 124.86 33.9351 125.49 34.1217C126.143 34.2851 126.867 34.4717 127.66 34.6817C128.453 34.8917 129.223 35.1017 129.97 35.3117C130.74 35.4984 131.288 35.6384 131.615 35.7317C132.432 35.9884 133.143 36.3384 133.75 36.7817C134.357 37.2251 134.858 37.7384 135.255 38.3217C135.675 38.8817 135.978 39.4884 136.165 40.1417C136.375 40.7951 136.48 41.4484 136.48 42.1017C136.48 43.5017 136.188 44.7034 135.605 45.7067C135.045 46.6867 134.298 47.4917 133.365 48.1217C132.432 48.7517 131.37 49.2067 130.18 49.4867C128.99 49.7901 127.777 49.9417 126.54 49.9417C125.117 49.9417 123.775 49.7667 122.515 49.4167C121.255 49.0667 120.158 48.5301 119.225 47.8067C118.292 47.0834 117.545 46.1617 116.985 45.0417C116.425 43.8984 116.133 42.5567 116.11 41.0167H120.485Z" fill="#3D209C"/>
<path d="M48.3387 67.3567H68.5687V71.1367H60.6237V92.3467H56.2487V71.1367H48.3387V67.3567Z" fill="#3D209C"/>
<path d="M74.9657 67.3567H79.3407V92.3467H74.9657V67.3567Z" fill="#3D209C"/>
<path d="M88.032 67.3567H92.652L104.062 85.7667H104.132V67.3567H108.297V92.3467H103.677L92.302 73.9717H92.197V92.3467H88.032V67.3567Z" fill="#3D209C"/>
<path d="M123.651 67.3567H128.306L137.931 92.3467H133.241L130.896 85.7317H120.921L118.576 92.3467H114.061L123.651 67.3567ZM122.111 82.4067H129.741L125.996 71.6617H125.891L122.111 82.4067Z" fill="#3D209C"/>
<path d="M35.5828 32.3017C35.3961 31.5784 35.1395 30.9134 34.8128 30.3067C34.4861 29.7001 34.0661 29.1751 33.5528 28.7317C33.0395 28.2884 32.4328 27.9501 31.7328 27.7167C31.0561 27.4601 30.2628 27.3317 29.3528 27.3317C28.0228 27.3317 26.8678 27.6001 25.8878 28.1367C24.9311 28.6734 24.1495 29.3967 23.5428 30.3067C22.9361 31.1934 22.4811 32.2084 22.1778 33.3517C21.8978 34.4951 21.7578 35.6617 21.7578 36.8517C21.7578 38.0417 21.8978 39.2084 22.1778 40.3517C22.4811 41.4951 22.9361 42.5217 23.5428 43.4317C24.1495 44.3184 24.9311 45.0301 25.8878 45.5667C26.8678 46.1034 28.0228 46.3717 29.3528 46.3717C30.3328 46.3717 31.1961 46.2084 31.9428 45.8817C32.6895 45.5317 33.3311 45.0651 33.8678 44.4817C34.4045 43.8751 34.8245 43.1751 35.1278 42.3817C35.4311 41.5884 35.6295 40.7367 35.7228 39.8267H39.9928C39.8995 41.3201 39.5728 42.6851 39.0128 43.9217C38.4761 45.1584 37.7411 46.2317 36.8078 47.1417C35.8745 48.0284 34.7778 48.7167 33.5178 49.2067C32.2578 49.6967 30.8695 49.9417 29.3528 49.9417C27.4861 49.9417 25.8061 49.6034 24.3128 48.9267C22.8428 48.2267 21.5945 47.2817 20.5678 46.0917C19.5411 44.9017 18.7478 43.5134 18.1878 41.9267C17.6511 40.3401 17.3828 38.6484 17.3828 36.8517C17.3828 35.0784 17.6511 33.3984 18.1878 31.8117C18.7478 30.2251 19.5411 28.8367 20.5678 27.6467C21.5945 26.4567 22.8428 25.5117 24.3128 24.8117C25.8061 24.1117 27.4861 23.7617 29.3528 23.7617C30.7528 23.7617 32.0711 23.9601 33.3078 24.3567C34.5445 24.7301 35.6295 25.2901 36.5628 26.0367C37.5195 26.7601 38.2895 27.6467 38.8728 28.6967C39.4561 29.7467 39.8178 30.9484 39.9578 32.3017H35.5828Z" stroke="#3D209C" stroke-width="2"/>
<path d="M47.3666 24.3567H51.7416V34.2967H63.1166V24.3567H67.4916V49.3467H63.1166V38.0767H51.7416V49.3467H47.3666V24.3567Z" stroke="#3D209C" stroke-width="2"/>
<path d="M76.2304 24.3567H88.1654C90.9187 24.3567 92.9837 24.9517 94.3604 26.1417C95.7371 27.3317 96.4254 28.9884 96.4254 31.1117C96.4254 32.3017 96.2504 33.2934 95.9004 34.0867C95.5504 34.8567 95.1421 35.4867 94.6754 35.9767C94.2087 36.4434 93.7421 36.7817 93.2754 36.9917C92.8321 37.2017 92.5054 37.3417 92.2954 37.4117V37.4817C92.6687 37.5284 93.0654 37.6451 93.4854 37.8317C93.9287 38.0184 94.3371 38.3217 94.7104 38.7417C95.0837 39.1384 95.3871 39.6634 95.6204 40.3167C95.8771 40.9701 96.0054 41.7867 96.0054 42.7667C96.0054 44.2367 96.1104 45.5784 96.3204 46.7917C96.5537 47.9817 96.9037 48.8334 97.3704 49.3467H92.6804C92.3537 48.8101 92.1554 48.2151 92.0854 47.5617C92.0387 46.9084 92.0154 46.2784 92.0154 45.6717C92.0154 44.5284 91.9454 43.5484 91.8054 42.7317C91.6654 41.8917 91.4087 41.2034 91.0354 40.6667C90.6621 40.1067 90.1487 39.6984 89.4954 39.4417C88.8654 39.1851 88.0487 39.0567 87.0454 39.0567H80.6054V49.3467H76.2304V24.3567ZM80.6054 35.7317H87.7804C89.1804 35.7317 90.2421 35.4051 90.9654 34.7517C91.6887 34.0751 92.0504 33.0717 92.0504 31.7417C92.0504 30.9484 91.9337 30.3067 91.7004 29.8167C91.4671 29.3034 91.1404 28.9067 90.7204 28.6267C90.3237 28.3467 89.8571 28.1601 89.3204 28.0667C88.8071 27.9734 88.2704 27.9267 87.7104 27.9267H80.6054V35.7317Z" stroke="#3D209C" stroke-width="2"/>
<path d="M104.374 24.3567H108.749V49.3467H104.374V24.3567Z" stroke="#3D209C" stroke-width="2"/>
<path d="M120.485 41.0167C120.485 41.9734 120.648 42.7901 120.975 43.4667C121.302 44.1434 121.757 44.7034 122.34 45.1467C122.923 45.5667 123.588 45.8817 124.335 46.0917C125.105 46.2784 125.933 46.3717 126.82 46.3717C127.777 46.3717 128.593 46.2667 129.27 46.0567C129.947 45.8234 130.495 45.5317 130.915 45.1817C131.335 44.8317 131.638 44.4351 131.825 43.9917C132.012 43.5251 132.105 43.0584 132.105 42.5917C132.105 41.6351 131.883 40.9351 131.44 40.4917C131.02 40.0251 130.553 39.6984 130.04 39.5117C129.153 39.1851 128.115 38.8817 126.925 38.6017C125.758 38.2984 124.312 37.9134 122.585 37.4467C121.512 37.1667 120.613 36.8051 119.89 36.3617C119.19 35.8951 118.63 35.3817 118.21 34.8217C117.79 34.2617 117.487 33.6667 117.3 33.0367C117.137 32.4067 117.055 31.7651 117.055 31.1117C117.055 29.8517 117.312 28.7667 117.825 27.8567C118.362 26.9234 119.062 26.1534 119.925 25.5467C120.788 24.9401 121.768 24.4967 122.865 24.2167C123.962 23.9134 125.07 23.7617 126.19 23.7617C127.497 23.7617 128.722 23.9367 129.865 24.2867C131.032 24.6134 132.047 25.1151 132.91 25.7917C133.797 26.4684 134.497 27.3084 135.01 28.3117C135.523 29.2917 135.78 30.4351 135.78 31.7417H131.405C131.288 30.1317 130.74 29.0001 129.76 28.3467C128.78 27.6701 127.532 27.3317 126.015 27.3317C125.502 27.3317 124.977 27.3901 124.44 27.5067C123.903 27.6001 123.413 27.7751 122.97 28.0317C122.527 28.2651 122.153 28.5917 121.85 29.0117C121.57 29.4317 121.43 29.9567 121.43 30.5867C121.43 31.4734 121.698 32.1734 122.235 32.6867C122.795 33.1767 123.518 33.5501 124.405 33.8067C124.498 33.8301 124.86 33.9351 125.49 34.1217C126.143 34.2851 126.867 34.4717 127.66 34.6817C128.453 34.8917 129.223 35.1017 129.97 35.3117C130.74 35.4984 131.288 35.6384 131.615 35.7317C132.432 35.9884 133.143 36.3384 133.75 36.7817C134.357 37.2251 134.858 37.7384 135.255 38.3217C135.675 38.8817 135.978 39.4884 136.165 40.1417C136.375 40.7951 136.48 41.4484 136.48 42.1017C136.48 43.5017 136.188 44.7034 135.605 45.7067C135.045 46.6867 134.298 47.4917 133.365 48.1217C132.432 48.7517 131.37 49.2067 130.18 49.4867C128.99 49.7901 127.777 49.9417 126.54 49.9417C125.117 49.9417 123.775 49.7667 122.515 49.4167C121.255 49.0667 120.158 48.5301 119.225 47.8067C118.292 47.0834 117.545 46.1617 116.985 45.0417C116.425 43.8984 116.133 42.5567 116.11 41.0167H120.485Z" stroke="#3D209C" stroke-width="2"/>
<path d="M48.3387 67.3567H68.5687V71.1367H60.6237V92.3467H56.2487V71.1367H48.3387V67.3567Z" stroke="#3D209C" stroke-width="2"/>
<path d="M74.9657 67.3567H79.3407V92.3467H74.9657V67.3567Z" stroke="#3D209C" stroke-width="2"/>
<path d="M88.032 67.3567H92.652L104.062 85.7667H104.132V67.3567H108.297V92.3467H103.677L92.302 73.9717H92.197V92.3467H88.032V67.3567Z" stroke="#3D209C" stroke-width="2"/>
<path d="M123.651 67.3567H128.306L137.931 92.3467H133.241L130.896 85.7317H120.921L118.576 92.3467H114.061L123.651 67.3567ZM122.111 82.4067H129.741L125.996 71.6617H125.891L122.111 82.4067Z" stroke="#3D209C" stroke-width="2"/>
<path d="M154.312 20.236L154.337 20.1542L154.352 20.0702L154.638 18.4662L155.756 20.2539L155.784 20.2985L155.815 20.341C159.392 25.2561 163.572 30.3076 169.827 32.0658C164.042 34.854 159.804 40.0846 158.277 46.3287L157.128 51.0321L156.007 47.4897C154.128 41.5519 149.775 36.7449 144.11 34.2725C146.65 32.8834 148.568 31.3949 150.1 29.4396C151.95 27.0799 153.141 24.1603 154.312 20.236ZM31.2023 66.504C33.1862 72.387 37.5996 77.0859 43.254 79.4587C37.6652 81.813 33.3112 86.4302 31.3018 92.19L30.2443 95.2216L29.7956 93.1225C28.5449 87.2706 24.9216 82.2391 19.8479 79.1895C25.3292 76.2845 29.3069 71.1339 30.7173 65.0657L31.2023 66.504Z" fill="#E2B075" stroke="#3D209C" stroke-width="3"/>
</svg>
