<svg width="184" height="113" viewBox="0 0 184 113" fill="none" xmlns="http://www.w3.org/2000/svg">
<path d="M35.5828 31.9321C35.3961 31.2088 35.1395 30.5438 34.8128 29.9371C34.4861 29.3304 34.0661 28.8054 33.5528 28.3621C33.0395 27.9188 32.4328 27.5804 31.7328 27.3471C31.0561 27.0904 30.2628 26.9621 29.3528 26.9621C28.0228 26.9621 26.8678 27.2304 25.8878 27.7671C24.9311 28.3038 24.1495 29.0271 23.5428 29.9371C22.9361 30.8238 22.4811 31.8388 22.1778 32.9821C21.8978 34.1254 21.7578 35.2921 21.7578 36.4821C21.7578 37.6721 21.8978 38.8388 22.1778 39.9821C22.4811 41.1254 22.9361 42.1521 23.5428 43.0621C24.1495 43.9488 24.9311 44.6604 25.8878 45.1971C26.8678 45.7338 28.0228 46.0021 29.3528 46.0021C30.3328 46.0021 31.1961 45.8388 31.9428 45.5121C32.6895 45.1621 33.3311 44.6954 33.8678 44.1121C34.4045 43.5054 34.8245 42.8054 35.1278 42.0121C35.4311 41.2188 35.6295 40.3671 35.7228 39.4571H39.9928C39.8995 40.9504 39.5728 42.3154 39.0128 43.5521C38.4761 44.7888 37.7411 45.8621 36.8078 46.7721C35.8745 47.6588 34.7778 48.3471 33.5178 48.8371C32.2578 49.3271 30.8695 49.5721 29.3528 49.5721C27.4861 49.5721 25.8061 49.2338 24.3128 48.5571C22.8428 47.8571 21.5945 46.9121 20.5678 45.7221C19.5411 44.5321 18.7478 43.1438 18.1878 41.5571C17.6511 39.9704 17.3828 38.2788 17.3828 36.4821C17.3828 34.7088 17.6511 33.0288 18.1878 31.4421C18.7478 29.8554 19.5411 28.4671 20.5678 27.2771C21.5945 26.0871 22.8428 25.1421 24.3128 24.4421C25.8061 23.7421 27.4861 23.3921 29.3528 23.3921C30.7528 23.3921 32.0711 23.5904 33.3078 23.9871C34.5445 24.3604 35.6295 24.9204 36.5628 25.6671C37.5195 26.3904 38.2895 27.2771 38.8728 28.3271C39.4561 29.3771 39.8178 30.5788 39.9578 31.9321H35.5828Z" fill="#3D209C"/>
<path d="M47.3666 23.9871H51.7416V33.9271H63.1166V23.9871H67.4916V48.9771H63.1166V37.7071H51.7416V48.9771H47.3666V23.9871Z" fill="#3D209C"/>
<path d="M76.2304 23.9871H88.1654C90.9187 23.9871 92.9837 24.5821 94.3604 25.7721C95.7371 26.9621 96.4254 28.6188 96.4254 30.7421C96.4254 31.9321 96.2504 32.9238 95.9004 33.7171C95.5504 34.4871 95.1421 35.1171 94.6754 35.6071C94.2087 36.0738 93.7421 36.4121 93.2754 36.6221C92.8321 36.8321 92.5054 36.9721 92.2954 37.0421V37.1121C92.6687 37.1588 93.0654 37.2754 93.4854 37.4621C93.9287 37.6488 94.3371 37.9521 94.7104 38.3721C95.0837 38.7688 95.3871 39.2938 95.6204 39.9471C95.8771 40.6004 96.0054 41.4171 96.0054 42.3971C96.0054 43.8671 96.1104 45.2088 96.3204 46.4221C96.5537 47.6121 96.9037 48.4638 97.3704 48.9771H92.6804C92.3537 48.4404 92.1554 47.8454 92.0854 47.1921C92.0387 46.5388 92.0154 45.9088 92.0154 45.3021C92.0154 44.1588 91.9454 43.1788 91.8054 42.3621C91.6654 41.5221 91.4087 40.8338 91.0354 40.2971C90.6621 39.7371 90.1487 39.3288 89.4954 39.0721C88.8654 38.8154 88.0487 38.6871 87.0454 38.6871H80.6054V48.9771H76.2304V23.9871ZM80.6054 35.3621H87.7804C89.1804 35.3621 90.2421 35.0354 90.9654 34.3821C91.6887 33.7054 92.0504 32.7021 92.0504 31.3721C92.0504 30.5788 91.9337 29.9371 91.7004 29.4471C91.4671 28.9338 91.1404 28.5371 90.7204 28.2571C90.3237 27.9771 89.8571 27.7904 89.3204 27.6971C88.8071 27.6038 88.2704 27.5571 87.7104 27.5571H80.6054V35.3621Z" fill="#3D209C"/>
<path d="M104.374 23.9871H108.749V48.9771H104.374V23.9871Z" fill="#3D209C"/>
<path d="M120.485 40.6471C120.485 41.6038 120.648 42.4204 120.975 43.0971C121.302 43.7738 121.757 44.3338 122.34 44.7771C122.923 45.1971 123.588 45.5121 124.335 45.7221C125.105 45.9088 125.933 46.0021 126.82 46.0021C127.777 46.0021 128.593 45.8971 129.27 45.6871C129.947 45.4538 130.495 45.1621 130.915 44.8121C131.335 44.4621 131.638 44.0654 131.825 43.6221C132.012 43.1554 132.105 42.6888 132.105 42.2221C132.105 41.2654 131.883 40.5654 131.44 40.1221C131.02 39.6554 130.553 39.3288 130.04 39.1421C129.153 38.8154 128.115 38.5121 126.925 38.2321C125.758 37.9288 124.312 37.5438 122.585 37.0771C121.512 36.7971 120.613 36.4354 119.89 35.9921C119.19 35.5254 118.63 35.0121 118.21 34.4521C117.79 33.8921 117.487 33.2971 117.3 32.6671C117.137 32.0371 117.055 31.3954 117.055 30.7421C117.055 29.4821 117.312 28.3971 117.825 27.4871C118.362 26.5538 119.062 25.7838 119.925 25.1771C120.788 24.5704 121.768 24.1271 122.865 23.8471C123.962 23.5438 125.07 23.3921 126.19 23.3921C127.497 23.3921 128.722 23.5671 129.865 23.9171C131.032 24.2438 132.047 24.7454 132.91 25.4221C133.797 26.0988 134.497 26.9388 135.01 27.9421C135.523 28.9221 135.78 30.0654 135.78 31.3721H131.405C131.288 29.7621 130.74 28.6304 129.76 27.9771C128.78 27.3004 127.532 26.9621 126.015 26.9621C125.502 26.9621 124.977 27.0204 124.44 27.1371C123.903 27.2304 123.413 27.4054 122.97 27.6621C122.527 27.8954 122.153 28.2221 121.85 28.6421C121.57 29.0621 121.43 29.5871 121.43 30.2171C121.43 31.1038 121.698 31.8038 122.235 32.3171C122.795 32.8071 123.518 33.1804 124.405 33.4371C124.498 33.4604 124.86 33.5654 125.49 33.7521C126.143 33.9154 126.867 34.1021 127.66 34.3121C128.453 34.5221 129.223 34.7321 129.97 34.9421C130.74 35.1288 131.288 35.2688 131.615 35.3621C132.432 35.6188 133.143 35.9688 133.75 36.4121C134.357 36.8554 134.858 37.3688 135.255 37.9521C135.675 38.5121 135.978 39.1188 136.165 39.7721C136.375 40.4254 136.48 41.0788 136.48 41.7321C136.48 43.1321 136.188 44.3338 135.605 45.3371C135.045 46.3171 134.298 47.1221 133.365 47.7521C132.432 48.3821 131.37 48.8371 130.18 49.1171C128.99 49.4204 127.777 49.5721 126.54 49.5721C125.117 49.5721 123.775 49.3971 122.515 49.0471C121.255 48.6971 120.158 48.1604 119.225 47.4371C118.292 46.7138 117.545 45.7921 116.985 44.6721C116.425 43.5288 116.133 42.1871 116.11 40.6471H120.485Z" fill="#3D209C"/>
<path d="M48.3387 66.9871H68.5687V70.7671H60.6237V91.9771H56.2487V70.7671H48.3387V66.9871Z" fill="#3D209C"/>
<path d="M74.9657 66.9871H79.3407V91.9771H74.9657V66.9871Z" fill="#3D209C"/>
<path d="M88.032 66.9871H92.652L104.062 85.3971H104.132V66.9871H108.297V91.9771H103.677L92.302 73.6021H92.197V91.9771H88.032V66.9871Z" fill="#3D209C"/>
<path d="M123.651 66.9871H128.306L137.931 91.9771H133.241L130.896 85.3621H120.921L118.576 91.9771H114.061L123.651 66.9871ZM122.111 82.0371H129.741L125.996 71.2921H125.891L122.111 82.0371Z" fill="#3D209C"/>
<path d="M35.5828 31.9321C35.3961 31.2088 35.1395 30.5438 34.8128 29.9371C34.4861 29.3304 34.0661 28.8054 33.5528 28.3621C33.0395 27.9188 32.4328 27.5804 31.7328 27.3471C31.0561 27.0904 30.2628 26.9621 29.3528 26.9621C28.0228 26.9621 26.8678 27.2304 25.8878 27.7671C24.9311 28.3038 24.1495 29.0271 23.5428 29.9371C22.9361 30.8238 22.4811 31.8388 22.1778 32.9821C21.8978 34.1254 21.7578 35.2921 21.7578 36.4821C21.7578 37.6721 21.8978 38.8388 22.1778 39.9821C22.4811 41.1254 22.9361 42.1521 23.5428 43.0621C24.1495 43.9488 24.9311 44.6604 25.8878 45.1971C26.8678 45.7338 28.0228 46.0021 29.3528 46.0021C30.3328 46.0021 31.1961 45.8388 31.9428 45.5121C32.6895 45.1621 33.3311 44.6954 33.8678 44.1121C34.4045 43.5054 34.8245 42.8054 35.1278 42.0121C35.4311 41.2188 35.6295 40.3671 35.7228 39.4571H39.9928C39.8995 40.9504 39.5728 42.3154 39.0128 43.5521C38.4761 44.7888 37.7411 45.8621 36.8078 46.7721C35.8745 47.6588 34.7778 48.3471 33.5178 48.8371C32.2578 49.3271 30.8695 49.5721 29.3528 49.5721C27.4861 49.5721 25.8061 49.2338 24.3128 48.5571C22.8428 47.8571 21.5945 46.9121 20.5678 45.7221C19.5411 44.5321 18.7478 43.1438 18.1878 41.5571C17.6511 39.9704 17.3828 38.2788 17.3828 36.4821C17.3828 34.7088 17.6511 33.0288 18.1878 31.4421C18.7478 29.8554 19.5411 28.4671 20.5678 27.2771C21.5945 26.0871 22.8428 25.1421 24.3128 24.4421C25.8061 23.7421 27.4861 23.3921 29.3528 23.3921C30.7528 23.3921 32.0711 23.5904 33.3078 23.9871C34.5445 24.3604 35.6295 24.9204 36.5628 25.6671C37.5195 26.3904 38.2895 27.2771 38.8728 28.3271C39.4561 29.3771 39.8178 30.5788 39.9578 31.9321H35.5828Z" stroke="#3D209C" stroke-width="2"/>
<path d="M47.3666 23.9871H51.7416V33.9271H63.1166V23.9871H67.4916V48.9771H63.1166V37.7071H51.7416V48.9771H47.3666V23.9871Z" stroke="#3D209C" stroke-width="2"/>
<path d="M76.2304 23.9871H88.1654C90.9187 23.9871 92.9837 24.5821 94.3604 25.7721C95.7371 26.9621 96.4254 28.6188 96.4254 30.7421C96.4254 31.9321 96.2504 32.9238 95.9004 33.7171C95.5504 34.4871 95.1421 35.1171 94.6754 35.6071C94.2087 36.0738 93.7421 36.4121 93.2754 36.6221C92.8321 36.8321 92.5054 36.9721 92.2954 37.0421V37.1121C92.6687 37.1588 93.0654 37.2754 93.4854 37.4621C93.9287 37.6488 94.3371 37.9521 94.7104 38.3721C95.0837 38.7688 95.3871 39.2938 95.6204 39.9471C95.8771 40.6004 96.0054 41.4171 96.0054 42.3971C96.0054 43.8671 96.1104 45.2088 96.3204 46.4221C96.5537 47.6121 96.9037 48.4638 97.3704 48.9771H92.6804C92.3537 48.4404 92.1554 47.8454 92.0854 47.1921C92.0387 46.5388 92.0154 45.9088 92.0154 45.3021C92.0154 44.1588 91.9454 43.1788 91.8054 42.3621C91.6654 41.5221 91.4087 40.8338 91.0354 40.2971C90.6621 39.7371 90.1487 39.3288 89.4954 39.0721C88.8654 38.8154 88.0487 38.6871 87.0454 38.6871H80.6054V48.9771H76.2304V23.9871ZM80.6054 35.3621H87.7804C89.1804 35.3621 90.2421 35.0354 90.9654 34.3821C91.6887 33.7054 92.0504 32.7021 92.0504 31.3721C92.0504 30.5788 91.9337 29.9371 91.7004 29.4471C91.4671 28.9338 91.1404 28.5371 90.7204 28.2571C90.3237 27.9771 89.8571 27.7904 89.3204 27.6971C88.8071 27.6038 88.2704 27.5571 87.7104 27.5571H80.6054V35.3621Z" stroke="#3D209C" stroke-width="2"/>
<path d="M104.374 23.9871H108.749V48.9771H104.374V23.9871Z" stroke="#3D209C" stroke-width="2"/>
<path d="M120.485 40.6471C120.485 41.6038 120.648 42.4204 120.975 43.0971C121.302 43.7738 121.757 44.3338 122.34 44.7771C122.923 45.1971 123.588 45.5121 124.335 45.7221C125.105 45.9088 125.933 46.0021 126.82 46.0021C127.777 46.0021 128.593 45.8971 129.27 45.6871C129.947 45.4538 130.495 45.1621 130.915 44.8121C131.335 44.4621 131.638 44.0654 131.825 43.6221C132.012 43.1554 132.105 42.6888 132.105 42.2221C132.105 41.2654 131.883 40.5654 131.44 40.1221C131.02 39.6554 130.553 39.3288 130.04 39.1421C129.153 38.8154 128.115 38.5121 126.925 38.2321C125.758 37.9288 124.312 37.5438 122.585 37.0771C121.512 36.7971 120.613 36.4354 119.89 35.9921C119.19 35.5254 118.63 35.0121 118.21 34.4521C117.79 33.8921 117.487 33.2971 117.3 32.6671C117.137 32.0371 117.055 31.3954 117.055 30.7421C117.055 29.4821 117.312 28.3971 117.825 27.4871C118.362 26.5538 119.062 25.7838 119.925 25.1771C120.788 24.5704 121.768 24.1271 122.865 23.8471C123.962 23.5438 125.07 23.3921 126.19 23.3921C127.497 23.3921 128.722 23.5671 129.865 23.9171C131.032 24.2438 132.047 24.7454 132.91 25.4221C133.797 26.0988 134.497 26.9388 135.01 27.9421C135.523 28.9221 135.78 30.0654 135.78 31.3721H131.405C131.288 29.7621 130.74 28.6304 129.76 27.9771C128.78 27.3004 127.532 26.9621 126.015 26.9621C125.502 26.9621 124.977 27.0204 124.44 27.1371C123.903 27.2304 123.413 27.4054 122.97 27.6621C122.527 27.8954 122.153 28.2221 121.85 28.6421C121.57 29.0621 121.43 29.5871 121.43 30.2171C121.43 31.1038 121.698 31.8038 122.235 32.3171C122.795 32.8071 123.518 33.1804 124.405 33.4371C124.498 33.4604 124.86 33.5654 125.49 33.7521C126.143 33.9154 126.867 34.1021 127.66 34.3121C128.453 34.5221 129.223 34.7321 129.97 34.9421C130.74 35.1288 131.288 35.2688 131.615 35.3621C132.432 35.6188 133.143 35.9688 133.75 36.4121C134.357 36.8554 134.858 37.3688 135.255 37.9521C135.675 38.5121 135.978 39.1188 136.165 39.7721C136.375 40.4254 136.48 41.0788 136.48 41.7321C136.48 43.1321 136.188 44.3338 135.605 45.3371C135.045 46.3171 134.298 47.1221 133.365 47.7521C132.432 48.3821 131.37 48.8371 130.18 49.1171C128.99 49.4204 127.777 49.5721 126.54 49.5721C125.117 49.5721 123.775 49.3971 122.515 49.0471C121.255 48.6971 120.158 48.1604 119.225 47.4371C118.292 46.7138 117.545 45.7921 116.985 44.6721C116.425 43.5288 116.133 42.1871 116.11 40.6471H120.485Z" stroke="#3D209C" stroke-width="2"/>
<path d="M48.3387 66.9871H68.5687V70.7671H60.6237V91.9771H56.2487V70.7671H48.3387V66.9871Z" stroke="#3D209C" stroke-width="2"/>
<path d="M74.9657 66.9871H79.3407V91.9771H74.9657V66.9871Z" stroke="#3D209C" stroke-width="2"/>
<path d="M88.032 66.9871H92.652L104.062 85.3971H104.132V66.9871H108.297V91.9771H103.677L92.302 73.6021H92.197V91.9771H88.032V66.9871Z" stroke="#3D209C" stroke-width="2"/>
<path d="M123.651 66.9871H128.306L137.931 91.9771H133.241L130.896 85.3621H120.921L118.576 91.9771H114.061L123.651 66.9871ZM122.111 82.0371H129.741L125.996 71.2921H125.891L122.111 82.0371Z" stroke="#3D209C" stroke-width="2"/>
<path d="M154.312 19.8664L154.337 19.7846L154.352 19.7006L154.638 18.0966L155.756 19.8843L155.784 19.9288L155.815 19.9713C159.392 24.8865 163.572 29.938 169.827 31.6961C164.042 34.4844 159.804 39.715 158.277 45.9591L157.128 50.6624L156.007 47.12C154.128 41.1823 149.775 36.3752 144.11 33.9029C146.65 32.5138 148.568 31.0253 150.1 29.0699C151.95 26.7103 153.141 23.7906 154.312 19.8664ZM31.2023 66.1343C33.1862 72.0173 37.5996 76.7163 43.254 79.089C37.6652 81.4433 33.3112 86.0605 31.3018 91.8204L30.2443 94.852L29.7956 92.7529C28.5449 86.901 24.9216 81.8694 19.8479 78.8199C25.3292 75.9149 29.3069 70.7643 30.7173 64.696L31.2023 66.1343Z" fill="#F4DFC7" stroke="#3D209C" stroke-width="3"/>
</svg>
