<svg width="184" height="114" viewBox="0 0 184 114" fill="none" xmlns="http://www.w3.org/2000/svg">
<path d="M35.5828 32.4321C35.3961 31.7088 35.1395 31.0438 34.8128 30.4371C34.4861 29.8304 34.0661 29.3054 33.5528 28.8621C33.0395 28.4188 32.4328 28.0804 31.7328 27.8471C31.0561 27.5904 30.2628 27.4621 29.3528 27.4621C28.0228 27.4621 26.8678 27.7304 25.8878 28.2671C24.9311 28.8038 24.1495 29.5271 23.5428 30.4371C22.9361 31.3238 22.4811 32.3388 22.1778 33.4821C21.8978 34.6254 21.7578 35.7921 21.7578 36.9821C21.7578 38.1721 21.8978 39.3388 22.1778 40.4821C22.4811 41.6254 22.9361 42.6521 23.5428 43.5621C24.1495 44.4488 24.9311 45.1604 25.8878 45.6971C26.8678 46.2338 28.0228 46.5021 29.3528 46.5021C30.3328 46.5021 31.1961 46.3388 31.9428 46.0121C32.6895 45.6621 33.3311 45.1954 33.8678 44.6121C34.4045 44.0054 34.8245 43.3054 35.1278 42.5121C35.4311 41.7188 35.6295 40.8671 35.7228 39.9571H39.9928C39.8995 41.4504 39.5728 42.8154 39.0128 44.0521C38.4761 45.2888 37.7411 46.3621 36.8078 47.2721C35.8745 48.1588 34.7778 48.8471 33.5178 49.3371C32.2578 49.8271 30.8695 50.0721 29.3528 50.0721C27.4861 50.0721 25.8061 49.7338 24.3128 49.0571C22.8428 48.3571 21.5945 47.4121 20.5678 46.2221C19.5411 45.0321 18.7478 43.6438 18.1878 42.0571C17.6511 40.4704 17.3828 38.7788 17.3828 36.9821C17.3828 35.2088 17.6511 33.5288 18.1878 31.9421C18.7478 30.3554 19.5411 28.9671 20.5678 27.7771C21.5945 26.5871 22.8428 25.6421 24.3128 24.9421C25.8061 24.2421 27.4861 23.8921 29.3528 23.8921C30.7528 23.8921 32.0711 24.0904 33.3078 24.4871C34.5445 24.8604 35.6295 25.4204 36.5628 26.1671C37.5195 26.8904 38.2895 27.7771 38.8728 28.8271C39.4561 29.8771 39.8178 31.0788 39.9578 32.4321H35.5828Z" fill="#3D209C"/>
<path d="M47.3666 24.4871H51.7416V34.4271H63.1166V24.4871H67.4916V49.4771H63.1166V38.2071H51.7416V49.4771H47.3666V24.4871Z" fill="#3D209C"/>
<path d="M76.2304 24.4871H88.1654C90.9187 24.4871 92.9837 25.0821 94.3604 26.2721C95.7371 27.4621 96.4254 29.1188 96.4254 31.2421C96.4254 32.4321 96.2504 33.4238 95.9004 34.2171C95.5504 34.9871 95.1421 35.6171 94.6754 36.1071C94.2087 36.5738 93.7421 36.9121 93.2754 37.1221C92.8321 37.3321 92.5054 37.4721 92.2954 37.5421V37.6121C92.6687 37.6588 93.0654 37.7754 93.4854 37.9621C93.9287 38.1488 94.3371 38.4521 94.7104 38.8721C95.0837 39.2688 95.3871 39.7938 95.6204 40.4471C95.8771 41.1004 96.0054 41.9171 96.0054 42.8971C96.0054 44.3671 96.1104 45.7088 96.3204 46.9221C96.5537 48.1121 96.9037 48.9638 97.3704 49.4771H92.6804C92.3537 48.9404 92.1554 48.3454 92.0854 47.6921C92.0387 47.0388 92.0154 46.4088 92.0154 45.8021C92.0154 44.6588 91.9454 43.6788 91.8054 42.8621C91.6654 42.0221 91.4087 41.3338 91.0354 40.7971C90.6621 40.2371 90.1487 39.8288 89.4954 39.5721C88.8654 39.3154 88.0487 39.1871 87.0454 39.1871H80.6054V49.4771H76.2304V24.4871ZM80.6054 35.8621H87.7804C89.1804 35.8621 90.2421 35.5354 90.9654 34.8821C91.6887 34.2054 92.0504 33.2021 92.0504 31.8721C92.0504 31.0788 91.9337 30.4371 91.7004 29.9471C91.4671 29.4338 91.1404 29.0371 90.7204 28.7571C90.3237 28.4771 89.8571 28.2904 89.3204 28.1971C88.8071 28.1038 88.2704 28.0571 87.7104 28.0571H80.6054V35.8621Z" fill="#3D209C"/>
<path d="M104.374 24.4871H108.749V49.4771H104.374V24.4871Z" fill="#3D209C"/>
<path d="M120.485 41.1471C120.485 42.1038 120.648 42.9204 120.975 43.5971C121.302 44.2738 121.757 44.8338 122.34 45.2771C122.923 45.6971 123.588 46.0121 124.335 46.2221C125.105 46.4088 125.933 46.5021 126.82 46.5021C127.777 46.5021 128.593 46.3971 129.27 46.1871C129.947 45.9538 130.495 45.6621 130.915 45.3121C131.335 44.9621 131.638 44.5654 131.825 44.1221C132.012 43.6554 132.105 43.1888 132.105 42.7221C132.105 41.7654 131.883 41.0654 131.44 40.6221C131.02 40.1554 130.553 39.8288 130.04 39.6421C129.153 39.3154 128.115 39.0121 126.925 38.7321C125.758 38.4288 124.312 38.0438 122.585 37.5771C121.512 37.2971 120.613 36.9354 119.89 36.4921C119.19 36.0254 118.63 35.5121 118.21 34.9521C117.79 34.3921 117.487 33.7971 117.3 33.1671C117.137 32.5371 117.055 31.8954 117.055 31.2421C117.055 29.9821 117.312 28.8971 117.825 27.9871C118.362 27.0538 119.062 26.2838 119.925 25.6771C120.788 25.0704 121.768 24.6271 122.865 24.3471C123.962 24.0438 125.07 23.8921 126.19 23.8921C127.497 23.8921 128.722 24.0671 129.865 24.4171C131.032 24.7438 132.047 25.2454 132.91 25.9221C133.797 26.5988 134.497 27.4388 135.01 28.4421C135.523 29.4221 135.78 30.5654 135.78 31.8721H131.405C131.288 30.2621 130.74 29.1304 129.76 28.4771C128.78 27.8004 127.532 27.4621 126.015 27.4621C125.502 27.4621 124.977 27.5204 124.44 27.6371C123.903 27.7304 123.413 27.9054 122.97 28.1621C122.527 28.3954 122.153 28.7221 121.85 29.1421C121.57 29.5621 121.43 30.0871 121.43 30.7171C121.43 31.6038 121.698 32.3038 122.235 32.8171C122.795 33.3071 123.518 33.6804 124.405 33.9371C124.498 33.9604 124.86 34.0654 125.49 34.2521C126.143 34.4154 126.867 34.6021 127.66 34.8121C128.453 35.0221 129.223 35.2321 129.97 35.4421C130.74 35.6288 131.288 35.7688 131.615 35.8621C132.432 36.1188 133.143 36.4688 133.75 36.9121C134.357 37.3554 134.858 37.8688 135.255 38.4521C135.675 39.0121 135.978 39.6188 136.165 40.2721C136.375 40.9254 136.48 41.5788 136.48 42.2321C136.48 43.6321 136.188 44.8338 135.605 45.8371C135.045 46.8171 134.298 47.6221 133.365 48.2521C132.432 48.8821 131.37 49.3371 130.18 49.6171C128.99 49.9204 127.777 50.0721 126.54 50.0721C125.117 50.0721 123.775 49.8971 122.515 49.5471C121.255 49.1971 120.158 48.6604 119.225 47.9371C118.292 47.2138 117.545 46.2921 116.985 45.1721C116.425 44.0288 116.133 42.6871 116.11 41.1471H120.485Z" fill="#3D209C"/>
<path d="M48.3387 67.4871H68.5687V71.2671H60.6237V92.4771H56.2487V71.2671H48.3387V67.4871Z" fill="#3D209C"/>
<path d="M74.9657 67.4871H79.3407V92.4771H74.9657V67.4871Z" fill="#3D209C"/>
<path d="M88.032 67.4871H92.652L104.062 85.8971H104.132V67.4871H108.297V92.4771H103.677L92.302 74.1021H92.197V92.4771H88.032V67.4871Z" fill="#3D209C"/>
<path d="M123.651 67.4871H128.306L137.931 92.4771H133.241L130.896 85.8621H120.921L118.576 92.4771H114.061L123.651 67.4871ZM122.111 82.5371H129.741L125.996 71.7921H125.891L122.111 82.5371Z" fill="#3D209C"/>
<path d="M35.5828 32.4321C35.3961 31.7088 35.1395 31.0438 34.8128 30.4371C34.4861 29.8304 34.0661 29.3054 33.5528 28.8621C33.0395 28.4188 32.4328 28.0804 31.7328 27.8471C31.0561 27.5904 30.2628 27.4621 29.3528 27.4621C28.0228 27.4621 26.8678 27.7304 25.8878 28.2671C24.9311 28.8038 24.1495 29.5271 23.5428 30.4371C22.9361 31.3238 22.4811 32.3388 22.1778 33.4821C21.8978 34.6254 21.7578 35.7921 21.7578 36.9821C21.7578 38.1721 21.8978 39.3388 22.1778 40.4821C22.4811 41.6254 22.9361 42.6521 23.5428 43.5621C24.1495 44.4488 24.9311 45.1604 25.8878 45.6971C26.8678 46.2338 28.0228 46.5021 29.3528 46.5021C30.3328 46.5021 31.1961 46.3388 31.9428 46.0121C32.6895 45.6621 33.3311 45.1954 33.8678 44.6121C34.4045 44.0054 34.8245 43.3054 35.1278 42.5121C35.4311 41.7188 35.6295 40.8671 35.7228 39.9571H39.9928C39.8995 41.4504 39.5728 42.8154 39.0128 44.0521C38.4761 45.2888 37.7411 46.3621 36.8078 47.2721C35.8745 48.1588 34.7778 48.8471 33.5178 49.3371C32.2578 49.8271 30.8695 50.0721 29.3528 50.0721C27.4861 50.0721 25.8061 49.7338 24.3128 49.0571C22.8428 48.3571 21.5945 47.4121 20.5678 46.2221C19.5411 45.0321 18.7478 43.6438 18.1878 42.0571C17.6511 40.4704 17.3828 38.7788 17.3828 36.9821C17.3828 35.2088 17.6511 33.5288 18.1878 31.9421C18.7478 30.3554 19.5411 28.9671 20.5678 27.7771C21.5945 26.5871 22.8428 25.6421 24.3128 24.9421C25.8061 24.2421 27.4861 23.8921 29.3528 23.8921C30.7528 23.8921 32.0711 24.0904 33.3078 24.4871C34.5445 24.8604 35.6295 25.4204 36.5628 26.1671C37.5195 26.8904 38.2895 27.7771 38.8728 28.8271C39.4561 29.8771 39.8178 31.0788 39.9578 32.4321H35.5828Z" stroke="#3D209C" stroke-width="2"/>
<path d="M47.3666 24.4871H51.7416V34.4271H63.1166V24.4871H67.4916V49.4771H63.1166V38.2071H51.7416V49.4771H47.3666V24.4871Z" stroke="#3D209C" stroke-width="2"/>
<path d="M76.2304 24.4871H88.1654C90.9187 24.4871 92.9837 25.0821 94.3604 26.2721C95.7371 27.4621 96.4254 29.1188 96.4254 31.2421C96.4254 32.4321 96.2504 33.4238 95.9004 34.2171C95.5504 34.9871 95.1421 35.6171 94.6754 36.1071C94.2087 36.5738 93.7421 36.9121 93.2754 37.1221C92.8321 37.3321 92.5054 37.4721 92.2954 37.5421V37.6121C92.6687 37.6588 93.0654 37.7754 93.4854 37.9621C93.9287 38.1488 94.3371 38.4521 94.7104 38.8721C95.0837 39.2688 95.3871 39.7938 95.6204 40.4471C95.8771 41.1004 96.0054 41.9171 96.0054 42.8971C96.0054 44.3671 96.1104 45.7088 96.3204 46.9221C96.5537 48.1121 96.9037 48.9638 97.3704 49.4771H92.6804C92.3537 48.9404 92.1554 48.3454 92.0854 47.6921C92.0387 47.0388 92.0154 46.4088 92.0154 45.8021C92.0154 44.6588 91.9454 43.6788 91.8054 42.8621C91.6654 42.0221 91.4087 41.3338 91.0354 40.7971C90.6621 40.2371 90.1487 39.8288 89.4954 39.5721C88.8654 39.3154 88.0487 39.1871 87.0454 39.1871H80.6054V49.4771H76.2304V24.4871ZM80.6054 35.8621H87.7804C89.1804 35.8621 90.2421 35.5354 90.9654 34.8821C91.6887 34.2054 92.0504 33.2021 92.0504 31.8721C92.0504 31.0788 91.9337 30.4371 91.7004 29.9471C91.4671 29.4338 91.1404 29.0371 90.7204 28.7571C90.3237 28.4771 89.8571 28.2904 89.3204 28.1971C88.8071 28.1038 88.2704 28.0571 87.7104 28.0571H80.6054V35.8621Z" stroke="#3D209C" stroke-width="2"/>
<path d="M104.374 24.4871H108.749V49.4771H104.374V24.4871Z" stroke="#3D209C" stroke-width="2"/>
<path d="M120.485 41.1471C120.485 42.1038 120.648 42.9204 120.975 43.5971C121.302 44.2738 121.757 44.8338 122.34 45.2771C122.923 45.6971 123.588 46.0121 124.335 46.2221C125.105 46.4088 125.933 46.5021 126.82 46.5021C127.777 46.5021 128.593 46.3971 129.27 46.1871C129.947 45.9538 130.495 45.6621 130.915 45.3121C131.335 44.9621 131.638 44.5654 131.825 44.1221C132.012 43.6554 132.105 43.1888 132.105 42.7221C132.105 41.7654 131.883 41.0654 131.44 40.6221C131.02 40.1554 130.553 39.8288 130.04 39.6421C129.153 39.3154 128.115 39.0121 126.925 38.7321C125.758 38.4288 124.312 38.0438 122.585 37.5771C121.512 37.2971 120.613 36.9354 119.89 36.4921C119.19 36.0254 118.63 35.5121 118.21 34.9521C117.79 34.3921 117.487 33.7971 117.3 33.1671C117.137 32.5371 117.055 31.8954 117.055 31.2421C117.055 29.9821 117.312 28.8971 117.825 27.9871C118.362 27.0538 119.062 26.2838 119.925 25.6771C120.788 25.0704 121.768 24.6271 122.865 24.3471C123.962 24.0438 125.07 23.8921 126.19 23.8921C127.497 23.8921 128.722 24.0671 129.865 24.4171C131.032 24.7438 132.047 25.2454 132.91 25.9221C133.797 26.5988 134.497 27.4388 135.01 28.4421C135.523 29.4221 135.78 30.5654 135.78 31.8721H131.405C131.288 30.2621 130.74 29.1304 129.76 28.4771C128.78 27.8004 127.532 27.4621 126.015 27.4621C125.502 27.4621 124.977 27.5204 124.44 27.6371C123.903 27.7304 123.413 27.9054 122.97 28.1621C122.527 28.3954 122.153 28.7221 121.85 29.1421C121.57 29.5621 121.43 30.0871 121.43 30.7171C121.43 31.6038 121.698 32.3038 122.235 32.8171C122.795 33.3071 123.518 33.6804 124.405 33.9371C124.498 33.9604 124.86 34.0654 125.49 34.2521C126.143 34.4154 126.867 34.6021 127.66 34.8121C128.453 35.0221 129.223 35.2321 129.97 35.4421C130.74 35.6288 131.288 35.7688 131.615 35.8621C132.432 36.1188 133.143 36.4688 133.75 36.9121C134.357 37.3554 134.858 37.8688 135.255 38.4521C135.675 39.0121 135.978 39.6188 136.165 40.2721C136.375 40.9254 136.48 41.5788 136.48 42.2321C136.48 43.6321 136.188 44.8338 135.605 45.8371C135.045 46.8171 134.298 47.6221 133.365 48.2521C132.432 48.8821 131.37 49.3371 130.18 49.6171C128.99 49.9204 127.777 50.0721 126.54 50.0721C125.117 50.0721 123.775 49.8971 122.515 49.5471C121.255 49.1971 120.158 48.6604 119.225 47.9371C118.292 47.2138 117.545 46.2921 116.985 45.1721C116.425 44.0288 116.133 42.6871 116.11 41.1471H120.485Z" stroke="#3D209C" stroke-width="2"/>
<path d="M48.3387 67.4871H68.5687V71.2671H60.6237V92.4771H56.2487V71.2671H48.3387V67.4871Z" stroke="#3D209C" stroke-width="2"/>
<path d="M74.9657 67.4871H79.3407V92.4771H74.9657V67.4871Z" stroke="#3D209C" stroke-width="2"/>
<path d="M88.032 67.4871H92.652L104.062 85.8971H104.132V67.4871H108.297V92.4771H103.677L92.302 74.1021H92.197V92.4771H88.032V67.4871Z" stroke="#3D209C" stroke-width="2"/>
<path d="M123.651 67.4871H128.306L137.931 92.4771H133.241L130.896 85.8621H120.921L118.576 92.4771H114.061L123.651 67.4871ZM122.111 82.5371H129.741L125.996 71.7921H125.891L122.111 82.5371Z" stroke="#3D209C" stroke-width="2"/>
<path d="M154.312 20.3664L154.337 20.2846L154.352 20.2006L154.638 18.5966L155.756 20.3843L155.784 20.4288L155.815 20.4713C159.392 25.3865 163.572 30.438 169.827 32.1961C164.042 34.9844 159.804 40.215 158.277 46.4591L157.128 51.1624L156.007 47.62C154.128 41.6823 149.775 36.8752 144.11 34.4029C146.65 33.0138 148.568 31.5253 150.1 29.5699C151.95 27.2103 153.141 24.2906 154.312 20.3664ZM31.2023 66.6343C33.1862 72.5173 37.5996 77.2163 43.254 79.589C37.6652 81.9433 33.3112 86.5605 31.3018 92.3204L30.2443 95.352L29.7956 93.2529C28.5449 87.401 24.9216 82.3694 19.8479 79.3199C25.3292 76.4149 29.3069 71.2643 30.7173 65.196L31.2023 66.6343Z" fill="#FCF7F2" stroke="#3D209C" stroke-width="3"/>
</svg>
