<svg width="68" height="63" viewBox="0 0 68 63" fill="none" xmlns="http://www.w3.org/2000/svg">
<path d="M21.5489 34.84C23.7594 37.3354 26.6401 40.0603 29.6995 41.577C23.5643 44.0336 18.7698 49.0206 16.5657 55.2768L15.2446 58.1668L14.6986 56.2792C13.3368 49.9802 9.40254 44.5753 3.90427 41.335C9.86297 38.2427 14.1892 32.6805 15.7067 26.1169L16.4733 27.7799C16.5987 28.0983 16.8208 28.4941 17.0525 28.8769C17.3269 29.33 17.6891 29.8845 18.1232 30.5049C18.9915 31.746 20.1694 33.2828 21.5489 34.84Z" fill="#E2B075" stroke="#3D209C" stroke-width="3"/>
<path d="M54.4828 31.1126C52.7757 26.0037 49.0108 21.8907 44.1657 19.7178C48.964 17.5897 52.6998 13.57 54.4564 8.5789L55.186 6.50575L55.4458 7.73805C56.5232 12.8471 59.632 17.26 64.0017 20.0003C59.4341 22.5004 56.0716 26.7673 54.715 31.8073L54.4828 31.1126Z" fill="#E2B075" stroke="#3D209C" stroke-width="3"/>
</svg>
