<svg width="81" height="108" viewBox="0 0 81 108" fill="none" xmlns="http://www.w3.org/2000/svg">
<path d="M15.7023 35.9061C17.6862 41.789 22.0996 46.488 27.754 48.8607C22.1652 51.2151 17.8112 55.8322 15.8018 61.5921L14.7443 64.6237L14.2956 62.5246C13.0449 56.6727 9.42161 51.6412 4.34787 48.5916C9.82918 45.6866 13.8069 40.536 15.2173 34.4678L15.7023 35.9061Z" fill="#E2B075" stroke="#3D209C" stroke-width="3"/>
<path d="M64.2355 73.4061C66.2194 79.289 70.6328 83.988 76.2872 86.3607C70.6984 88.7151 66.3444 93.3322 64.335 99.0921L63.2775 102.124L62.8288 100.025C61.5781 94.1727 57.9548 89.1412 52.8811 86.0916C58.3624 83.1866 62.3401 78.036 63.7505 71.9678L64.2355 73.4061Z" fill="#E2B075" stroke="#3D209C" stroke-width="3"/>
<path d="M60.211 35.3612C58.1254 29.5135 53.6311 24.8919 47.9364 22.6176C53.4835 20.1666 57.7568 15.4746 59.6659 9.68072L60.6707 6.6313L61.1557 8.72226C62.5078 14.5516 66.2178 19.5195 71.3437 22.4805C65.9136 25.4803 62.0259 30.6991 60.7209 36.7909L60.211 35.3612Z" fill="#E2B075" stroke="#3D209C" stroke-width="3"/>
</svg>
